<?xml version="1.0" standalone="no"?>
<!DOCTYPE svg PUBLIC "-//W3C//DTD SVG 1.1//EN" "http://www.w3.org/Graphics/SVG/1.1/DTD/svg11.dtd" >
<svg xmlns="http://www.w3.org/2000/svg">
<metadata>Generated by IcoMoon</metadata>
<defs>
<font id="ximdex_icons" horiz-adv-x="512">
<font-face units-per-em="512" ascent="480" descent="-32" />
<missing-glyph horiz-adv-x="512" />
<glyph unicode="&#x20;" d="" horiz-adv-x="256" />
<glyph unicode="&#x21;" d="M384.96 255.68h-97.472v95.616h-63.392v-95.616h-95.968v-63.36h95.968v-96.224h63.392v96.224h97.472z" />
<glyph unicode="&#x22;" d="M320 320l-96-64v128l-160-64v-287.808h64v63.808h32v-63.808h288v224.32l-128 63.488zM128 128.096h-32v32h32v-32zM128 192.096h-32v32h32v-32zM128 256.096h-32v32h32v-32zM192 128.096h-32v32h32v-32zM192 192.096h-32v32h32v-32zM192 256.096h-32v32h32v-32zM288 64h-32v32h32v-32zM288 128h-32v32h32v-32zM288 192h-32v32h32v-32zM352 64h-32v32h32v-32zM352 128h-32v32h32v-32zM352 192h-32v32h32v-32zM416 64h-32v32h32v-32zM416 128h-32v32h32v-32zM416 192h-32v32h32v-32z" />
<glyph unicode="&#x23;" d="M254.912 448.672c-84.704 0-141.632-70.624-141.632-155.328 0-109.888 141.664-294.016 141.664-294.016s148.096 203.84 143.648 304c-3.744 84.64-58.912 145.344-143.68 145.344zM256 254.912c-35.424 0-64.192 28.704-64.192 64.16s28.736 64.16 64.192 64.16 64.16-28.736 64.16-64.16-28.736-64.16-64.16-64.16z" />
<glyph unicode="&#x24;" d="M352 320l-96-64-0.256 128-224.256-64v-287.808h96.512v63.808h32v-63.808h320v224.32l-128 63.488zM128.224 128.096h-64.672v32h64.672v-32zM128.224 192.096h-64.672v32h64.672v-32zM128.224 256.096h-64.672v32h64.672v-32zM223.488 128.096h-64.064v32h64.064v-32zM223.488 192.096h-64.064v32h64.064v-32zM223.488 256.096h-64.064v32h64.064v-32zM352 64h-63.712v32h63.68v-32zM352 128h-63.712v32h63.68v-32zM352 192h-63.712v32h63.68v-32zM448.288 64h-64.32v32h64.32v-32zM448.288 128h-64.32v32h64.32v-32zM448.288 192h-64.32v32h64.32v-32z" />
<glyph unicode="&#x25;" d="M0 416v-416h512v416h-512zM480 32h-448v352h448v-352zM352 304c0-26.51 21.49-48 48-48s48 21.49 48 48c0 26.51-21.49 48-48 48-26.51 0-48-21.49-48-48zM448 64h-384l96 256 128-160 64 48z" />
<glyph unicode="&#x26;" d="M432 480h-384c-26.4 0-48-21.6-48-48v-416c0-26.4 21.6-48 48-48h384c26.4 0 48 21.6 48 48v416c0 26.4-21.6 48-48 48zM416 32h-352v384h352v-384zM128 256h224v-32h-224zM128 192h224v-32h-224zM128 128h224v-32h-224zM128 320h224v-32h-224z" />
<glyph unicode="&#x27;" d="M0-32h256v512h-256v-512zM160 416h64v-64h-64v64zM160 288h64v-64h-64v64zM160 160h64v-64h-64v64zM32 416h64v-64h-64v64zM32 288h64v-64h-64v64zM32 160h64v-64h-64v64zM288 320h224v-32h-224zM288-32h64v128h96v-128h64v288h-224z" />
<glyph unicode="&#x28;" d="M502.624 470.624c-12.496 12.496-32.944 12.496-45.44 0l-65.12-65.184c-26.688 17.744-57.312 26.56-88.064 26.56-40.944 0-81.872-15.632-113.12-46.88l-96-96c-54.752-54.688-61.504-139.248-20.368-201.312l-65.12-65.184c-12.496-12.496-12.496-32.752 0-45.248 6.24-6.256 14.416-9.376 22.608-9.376s16.368 3.12 22.624 9.376l65.12 65.184c26.688-17.744 57.504-26.56 88.256-26.56 40.944 0 81.872 15.632 113.12 46.88l95.808 96c54.752 54.688 61.504 139.248 20.368 201.312l65.312 65.184c12.512 12.496 12.512 32.752 0.016 45.248zM399.808 272c0-25.632-10-49.744-28.128-67.872l-95.808-96c-18.128-18.128-42.24-28.128-67.872-28.128-14.496 0-28.368 3.568-41.12 9.632l47.744 47.744c12.496 12.496 12.496 32.752 0 45.248s-32.752 12.496-45.248 0l-47.744-47.744c-6.128 12.688-9.632 26.56-9.632 41.12 0 25.632 10 49.744 28.128 67.872l96 96c18.128 18.128 42.24 28.128 67.872 28.128 14.496 0 28.32-3.568 41.056-9.632l-48.688-48.752c-12.496-12.496-12.496-32.752 0-45.248 6.256-6.256 14.432-9.376 22.624-9.376 8.128 0 16.32 3.12 22.56 9.376l48.624 48.752c6.144-12.688 9.632-26.56 9.632-41.12z" />
<glyph unicode="&#x29;" d="M352 320l-96-64-0.256 128-224.256-64v-287.808h64.992l-0.512 63.808h96.512l-0.512-63.808h288v224.32l-127.968 63.488zM128.224 128.096h-64.672v63.52h64.672v-63.52zM128.224 224.384h-64.672v63.712h64.672v-63.712zM223.488 128.096h-64.064v63.52h64.064v-63.52zM223.488 224.384h-64.064v63.712h64.064v-63.712zM352 64h-63.712v64.448h63.68v-64.448zM352 159.584h-63.712v64.416h63.68v-64.416zM448.288 64h-64.32v64.448h64.32v-64.448zM448.288 159.584h-64.32v64.416h64.32v-64.416z" />
<glyph unicode="&#x2a;" d="M420.992 345.024l49.696 49.664c12.512 12.544 14.24 34.592 1.696 47.136-12.576 12.544-34.56 10.848-47.136-1.696l-49.632-49.632c-35.68 16.96-79.488 11.040-108.992-18.464l-156.96-156.96c-29.44-29.44-36.128-73.856-19.648-109.824l-49.6-49.6c-12.544-12.576-12.544-32.896 0-45.44s32.864-12.544 45.408 0.032l49.568 49.568c36-16.672 80.512-10.016 110.016 19.488l156.96 156.96c29.44 29.472 35.456 73.152 18.624 108.768zM199.232 123.264c-12.544-12.576-32.864-12.576-45.408 0-12.544 12.544-12.544 32.864 0 45.44l156.512 156.512c12.576 12.544 34.624 14.24 47.136 1.696 12.576-12.544 10.88-34.592-1.696-47.136l-156.544-156.512z" />
<glyph unicode="&#x2b;" d="M384.736 160c-0.032 85.376-0.128 212.48-0.128 212.48 0 6.432-5.184 11.648-11.616 11.648h-234.080c-6.464 0-11.648-5.216-11.648-11.648l0.064-328.768c0-6.4 5.216-11.616 11.648-11.616 0 0 92.256-0.032 149.024-0.064v0h23.168c3.296 0 6.24 0 8.832 0l64.736 96v31.968zM160 352h192v-32h-192v32zM160 288h192v-32h-192v32zM160 224h192v-32h-192v32zM160 160h128v-32h-128v32zM160 64v32h128v-32h-128z" />
<glyph unicode="&#x2c;" d="M192 336c0-44.183 35.817-80 80-80s80 35.817 80 80c0 44.183-35.817 80-80 80-44.183 0-80-35.817-80-80zM0 336c0-44.183 35.817-80 80-80s80 35.817 80 80c0 44.183-35.817 80-80 80-44.183 0-80-35.817-80-80zM384 176v48c0 17.6-14.4 32-32 32h-320c-17.6 0-32-14.4-32-32v-160c0-17.6 14.4-32 32-32h320c17.6 0 32 14.4 32 32v48l128-80v224l-128-80zM320 96h-256v96h256v-96z" />
<glyph unicode="&#x2d;" d="M160 384l352 96v-368c0-44.183-50.145-80-112-80s-112 35.817-112 80c0 44.183 50.145 80 112 80 17.179 0 33.451-2.766 48-7.703v164.794l-224-61.091v-240c0-44.183-50.144-80-112-80-61.856 0-112 35.817-112 80 0 44.183 50.144 80 112 80 17.179 0 33.451-2.766 48-7.703v263.703z" />
<glyph unicode="&#x41;" d="M192 416h128v-384h-128zM64 288h384v-128h-384z" />
<glyph unicode="&#x43;" d="M352 416l96-96-96-96 96-96-96-96-96 96-96-96-96 96 96 96-96 96 96 96 96-96z" />
<glyph unicode="&#x44;" d="M224 128h64v128h-64l-32-32h32zM416 384h-320c-9.632-1.376-32 0-32-32v-256c0-32 22.976-32 32-32h320c8.992 0 32 0 32 32v256c0 32-23.616 30.592-32 32zM160 352h192v-32h-192v32zM416 96h-320v192h320v-192z" />
<glyph unicode="&#x45;" d="M64 160v-128h128l224 224-128 128-224-224zM96 64v64l64-64h-64zM192 96l-64 64 160 160 64-64-160-160zM448 416c-35.36 35.36-77.536 48.608-128 0 33.888-33.824 94.176-94.176 128-128 48.384 42.336 35.392 92.64 0 128z" />
<glyph unicode="&#x49;" d="M32 415.968v-384h448v384h-448zM448 64h-384v320h384v-320zM125.888 289.056c0-18.257 14.799-33.056 33.056-33.056s33.056 14.799 33.056 33.056c0 18.257-14.799 33.056-33.056 33.056-18.256 0-33.056-14.799-33.056-33.056zM192 192l-96-96h160zM288 96h128l-128 192-64-96z" />
<glyph unicode="&#x53;" d="M304 400c-60.8 60.8-163.2 60.8-224 0-60.8-60.8-60.8-163.2 0-224 54.4-54.4 137.6-60.8 201.6-19.2l140.8-140.8c12.8-12.8 32-12.8 41.6 0l3.2 3.2c12.8 12.8 12.8 32 0 41.6l-144 140.8c41.6 60.8 35.2 144-19.2 198.4zM259.2 220.8c-38.4-38.4-99.2-38.4-134.4 0-38.4 38.4-38.4 99.2-3.2 134.4 38.4 38.4 99.2 38.4 134.4 0 38.4-35.2 38.4-96 3.2-134.4z" />
<glyph unicode="&#x54;" d="M64.992 414.976v-159.712l223.584-223.488 159.616 159.744-223.52 223.456h-159.68zM178.304 301.568c-18.496-18.496-48.736-18.304-67.552 0.512-18.784 18.72-18.944 49.024-0.448 67.52 18.592 18.592 48.8 18.368 67.552-0.48 18.752-18.688 19.008-49.024 0.448-67.552z" />
<glyph unicode="&#x59;" d="M32 192l160-160 256 256-96 96-160-160-64 64z" />
<glyph unicode="&#x63;" d="M96 128l64-64 96 96 96-96 64 64-96 96 96 96-64 64-96-96-96 96-64-64 96-96z" />
<glyph unicode="&#x65;" d="M64 32h96.352l-96.352 96.416zM329.152 393.344l24.032-24.096-241.184-240.704-24.032 24.064zM160.384 80.224l240.928 240.928 24.128-24.096-240.96-240.96zM425.472 297.088c-23.456 23.456-71.584 71.648-96.384 96.384 30.4 31.552 72.352 29.216 98.976 2.592 26.624-26.656 30.912-72.064-2.592-98.976z" />
<glyph unicode="&#x69;" d="M96 352v-259.2h320v259.2h-320zM384 128h-256v192h256v-192zM192 272c0-8.837 7.163-16 16-16s16 7.163 16 16c0 8.837-7.163 16-16 16-8.837 0-16-7.163-16-16zM224 224l-67.2-64h131.2zM310.4 160h41.6l-80 96-25.6-32z" />
<glyph unicode="&#x6c;" d="M256 448c141.385 0 256-93.125 256-208 0-114.876-114.615-208-256-208-13.578 0-26.905 0.867-39.912 2.522-54.989-54.989-120.625-64.85-184.088-66.298v13.458c34.268 16.789 64 47.37 64 82.318 0 4.877-0.379 9.665-1.082 14.348-57.898 38.132-94.918 96.377-94.918 161.652 0 114.875 114.615 208 256 208z" />
<glyph unicode="&#x70;" d="M257.6 352c-146.016 0-225.6-128.224-225.6-128.224s73.248-128.128 225.6-128.128c130.752 0 222.4 128.128 222.4 128.128s-88.8 128.224-222.4 128.224zM256 128c-52.992 0-96 42.944-96 95.904 0 53.056 43.008 96 96 96 53.024 0 95.968-42.944 95.968-96 0-52.96-42.944-95.904-95.968-95.904zM255.968 255.808c-17.568 0-31.84-14.272-31.84-31.872 0-17.536 14.24-31.776 31.84-31.776 17.6 0 31.872 14.24 31.872 31.776 0 17.632-14.304 31.872-31.872 31.872z" />
<glyph unicode="&#x73;" d="M297.6 364.8c-57.6 57.6-150.4 57.6-204.8 0-57.6-57.6-57.6-147.2 0-204.8 48-48 124.8-54.4 182.4-16l128-128c9.6-9.6 28.8-9.6 38.4 0l3.2 3.2c9.6 9.6 9.6 28.8 0 38.4l-128 128c35.2 54.4 28.8 131.2-19.2 179.2zM256 201.6c-35.2-35.2-89.6-35.2-121.6 0-35.2 35.2-35.2 89.6 0 121.6 35.2 35.2 89.6 35.2 121.6 0 35.2-32 35.2-86.4 0-121.6z" />
<glyph unicode="&#x74;" d="M96 384v-134.4l185.6-185.6 134.4 134.4-185.6 185.6h-134.4zM211.2 268.8c-19.2-19.2-48-19.2-67.2 0-16 19.2-19.2 48 0 67.2 19.2 19.2 48 19.2 67.2 0 19.2-19.2 19.2-48 0-67.2z" />
<glyph unicode="&#x75;" d="M311.413 128.632c-11.055 1.759-11.307 32.157-11.307 32.157s32.484 32.158 39.564 75.401c19.045 0 30.809 45.973 11.761 62.148 0.795 17.027 24.48 133.662-95.431 133.662-119.911 0-96.225-116.635-95.432-133.662-19.047-16.175-7.285-62.148 11.761-62.148 7.079-43.243 39.564-75.401 39.564-75.401s-0.252-30.398-11.307-32.157c-35.61-5.666-168.586-64.317-168.586-128.632h448c0 64.315-132.976 122.966-168.587 128.632z" />
<glyph unicode="&#x79;" d="M64 192l128-128 224 224-64 64-160-160-64 64z" />
<glyph unicode="&#xe006;" d="M64 160v-128h128l224 224-128 128-224-224zM96 64v64l64-64h-64zM448 416c-35.36 35.36-77.536 48.608-128 0 33.888-33.824 94.176-94.176 128-128 48.384 42.336 35.392 92.64 0 128zM160 160h32v-32h-32zM192 192h32v-32h-32zM224 224h32v-32h-32zM256 256h32v-32h-32zM288 288h32v-32h-32zM320 320h32v-32h-32zM128 128h32v-32h-32z" />
<glyph unicode="&#xe00a;" d="M64 32h96.352l-96.352 96.384zM329.184 393.312l24.032-24.064-241.216-240.736-24.032 24.096zM160.384 80.192l240.928 240.928 24.128-24.128-240.928-240.928zM449.536 321.152c-23.456 23.456-71.648 71.648-96.448 96.384 26.624 26.624 69.824 26.624 96.448 0 26.624-26.656 26.592-69.76 0-96.384z" />
<glyph unicode="&#xe010;" d="M128 384h320v-64h-320zM192 128h256v-64h-256zM57.6 256h390.4v-64h-390.4z" />
<glyph unicode="&#xe011;" d="M64 384h320v-64h-320zM64 128h256v-64h-256zM64 256h390.4v-64h-390.4z" />
<glyph unicode="&#xe012;" d="M64 384h384v-64h-384zM64 128h384v-64h-384zM64 256h384v-64h-384z" />
<glyph unicode="&#xe014;" d="M96 384h320v-64h-320zM128 128h256v-64h-256zM64 256h384v-64h-384z" />
<glyph unicode="&#xe015;" d="M96 224h256v-64h-256zM96 320h256v-64h-256zM384 320h32v-64h-32zM352 416h-192l-67.2-64h323.2zM96 128h256v-64h-256zM384 224h32v-64h-32zM384 128h32v-64h-32z" />
<glyph unicode="&#xe016;" d="M425.6 140.8c-3.2 6.4-16 12.8-28.8 16 12.8 28.8 19.2 60.8 16 92.8-12.8 86.4-92.8 147.2-179.2 134.4-12.8-3.2-25.6-6.4-35.2-9.6-6.4-3.2-3.2-9.6-3.2-9.6s12.8-28.8 16-38.4c3.2-6.4 9.6-3.2 12.8 0 6.4 3.2 9.6 3.2 16 3.2 57.6 9.6 112-32 118.4-89.6 3.2-19.2 0-38.4-6.4-54.4-9.6 9.6-19.2 19.2-25.6 22.4-6.4 3.2-12.8-9.6-12.8-19.2l9.6-67.2c0-9.6 9.6-16 19.2-12.8l67.2 9.6c9.6 3.2 19.2 12.8 16 22.4zM294.4 121.6c0 0-3.2 6.4-9.6 3.2-3.2 0-9.6-3.2-12.8-3.2-60.8-6.4-112 32-121.6 89.6-3.2 19.2 0 38.4 6.4 54.4 9.6-6.4 19.2-16 25.6-16 9.6-3.2 16 12.8 12.8 19.2l-9.6 44.8-3.2 19.2c-3.2 6.4-3.2 9.6-9.6 9.6-3.2 3.2-9.6 6.4-12.8 3.2l-64-16c-12.8 0-22.4-12.8-16-19.2s22.4-12.8 32-16c-12.8-25.6-19.2-57.6-12.8-89.6 12.8-86.4 92.8-147.2 179.2-134.4 9.6 0 19.2 3.2 28.8 6.4 3.2 3.2 3.2 6.4 3.2 6.4l-16 38.4z" />
<glyph unicode="&#xe017;" d="M377.6 310.4c-38.4 60.8-118.4 92.8-188.8 64-83.2-28.8-128-121.6-96-204.8 28.8-83.2 121.6-128 204.8-96 35.2 12.8 60.8 35.2 80 64l-51.2 22.4c-9.6-16-28.8-28.8-48-35.2-54.4-19.2-118.4 9.6-137.6 64-19.2 54.4 9.6 118.4 64 137.6 48 16 96 0 124.8-41.6l-54.4-28.8 131.2-57.6 25.6 140.8-54.4-28.8z" />
<glyph unicode="&#xe01b;" d="M96 384h64v-320h-64zM352 384h64v-320h-64zM224 384h64v-320h-64z" />
<glyph unicode="&#xe01c;" d="M96 384h128v-320h-128zM288 384h128v-320h-128z" />
<glyph unicode="&#xe01d;" d="M96 384h320v-320h-320z" />
<glyph unicode="&#xe01e;" d="M64 384v-320h393.6v320h-393.6zM384 128h-256v192h256v-192zM160 160h192l-64 96-60.8-64-35.2 32zM192 272c0-8.837 7.163-16 16-16s16 7.163 16 16c0 8.837-7.163 16-16 16-8.837 0-16-7.163-16-16z" />
<glyph unicode="&#xe020;" d="M166.4 115.2l41.6 108.8-32 99.2c-6.4 0-12.8 0-19.2 3.2-6.4 0-9.6 0-16 0-6.4 0-12.8 0-16 0-6.4 0-12.8 0-19.2-3.2l-86.4-256c6.4 0 12.8-3.2 19.2-3.2s9.6 0 16 0c3.2 0 9.6 0 12.8 0s9.6 0 16 3.2l12.8 48c6.4-3.2 12.8-3.2 19.2-3.2s12.8 0 19.2 0c6.4 0 12.8 0 19.2 0s12.8 3.2 19.2 3.2h-6.4zM150.4 160c-6.4 0-9.6 0-12.8 0-6.4 0-9.6 0-12.8 0-3.2 0-9.6 3.2-12.8 3.2l25.6 92.8 25.6-92.8c-6.4 0-9.6-3.2-12.8-3.2zM224 64c6.4 0 12.8 0 19.2 0 6.4 0 12.8 0 16 0 6.4 0 12.8 0 19.2 3.2l16 60.8c9.6-3.2 16-3.2 22.4-3.2s16 0 22.4 0c6.4 0 16 0 22.4 3.2 6.4 0 16 3.2 25.6 6.4l19.2-60.8c6.4 0 12.8-3.2 19.2-3.2s12.8 0 19.2 0 28.8 0 48 3.2l-102.4 313.6c-9.6 0-16 3.2-22.4 3.2s-12.8 0-19.2 0c-9.6-6.4-16-6.4-22.4-6.4-6.4 0-16 0-22.4-3.2l-105.6-310.4c9.6-3.2 16-3.2 25.6-6.4zM342.4 297.6l28.8-112c-6.4-3.2-9.6-3.2-16-3.2s-9.6 0-16 0c-6.4 0-9.6 0-16 0-3.2 0-9.6 3.2-16 3.2l35.2 112z" />
<glyph unicode="&#xe021;" d="M480 364.8c0 0-3.2-3.2-6.4-3.2-22.4-6.4-41.6-22.4-54.4-44.8-9.6-16-19.2-44.8-25.6-76.8 16 3.2 25.6 9.6 25.6 22.4 0 0 0 3.2-3.2 6.4-3.2 3.2-3.2 6.4-3.2 9.6 0 9.6 3.2 16 12.8 16 12.8 0 19.2-9.6 19.2-25.6 0-12.8-6.4-22.4-16-28.8-9.6-9.6-22.4-12.8-41.6-16-12.8-64-28.8-112-48-144 0-3.2-3.2-6.4-6.4-3.2-3.2 0-3.2 3.2-3.2 6.4 0 3.2 0 6.4-3.2 9.6-3.2 3.2-6.4 3.2-9.6 3.2-9.6 0-16 0-22.4-3.2-9.6-3.2-19.2-9.6-32-22.4-3.2-3.2-6.4-3.2-9.6 0-3.2 3.2 0 6.4 3.2 6.4 32 25.6 60.8 73.6 86.4 137.6-6.4 0-28.8-3.2-67.2-3.2-28.8-51.2-51.2-83.2-67.2-99.2-25.6-28.8-57.6-44.8-96-48-19.2-3.2-38.4 3.2-51.2 16-16 12.8-22.4 28.8-22.4 51.2 0 3.2 0 9.6 0 12.8 12.8 64 73.6 99.2 185.6 99.2 9.6 0 19.2 0 28.8 0 32 54.4 57.6 89.6 76.8 105.6 19.2 16 32 25.6 44.8 32 16 6.4 32 12.8 51.2 12.8 19.2 0 38.4-6.4 51.2-19.2 0-6.4 3.2-9.6 3.2-9.6zM230.4 208c-51.2-3.2-89.6-9.6-115.2-16-35.2-12.8-51.2-32-51.2-60.8 0-16 3.2-25.6 12.8-35.2 6.4-6.4 16-9.6 25.6-9.6 35.2 3.2 80 41.6 128 121.6zM432 368c-3.2 0-6.4 0-9.6 0-44.8 0-92.8-41.6-137.6-128 35.2-3.2 54.4-3.2 60.8-3.2 16 44.8 28.8 70.4 35.2 83.2 19.2 25.6 35.2 41.6 51.2 48z" />
<glyph unicode="&#xe022;" d="M188.8 67.2c-6.4-3.2-12.8-3.2-19.2-3.2s-12.8 0-16 0c-6.4 0-12.8 0-19.2 0-9.6 0-19.2 0-28.8 3.2l105.6 316.8c9.6 0 16 0 25.6 0 6.4 0 12.8 0 19.2 0 6.4 0 12.8 0 19.2 0s16 0 25.6 0l105.6-316.8c-19.2-3.2-35.2-3.2-48-3.2-6.4 0-12.8 0-19.2 0s-12.8 0-19.2 3.2l-19.2 60.8c-9.6-3.2-16-3.2-25.6-6.4-6.4 0-16-3.2-22.4-3.2-6.4 0-16 0-22.4 0-9.6 3.2-16 6.4-25.6 9.6l-16-60.8zM252.8 300.8l-32-115.2c6.4 0 9.6-3.2 16-3.2 3.2 0 9.6 0 16 0 6.4 0 9.6 0 16 0 6.4 0 9.6 3.2 16 3.2l-32 115.2z" />
<glyph unicode="&#xe023;" d="M448 76.8c0-6.4-6.4-12.8-12.8-12.8h-358.4c-6.4 0-12.8 6.4-12.8 12.8v246.4c0 6.4 6.4 12.8 12.8 12.8h358.4c6.4 0 12.8-6.4 12.8-12.8v-246.4zM211.2 326.4c0-6.4-6.4-9.6-12.8-9.6h-121.6c-6.4 0-12.8 3.2-12.8 9.6v44.8c0 6.4 6.4 12.8 12.8 12.8h124.8c35.2 0 35.2-48 67.2-48l-57.6-9.6z" />
<glyph unicode="&#xe024;" d="M64 320h384v-256h-384zM64 320l32 64h96l64-64zM288 352l-32 32h160l32-32z" />
<glyph unicode="&#xe026;" d="M371.2 384h-233.6c-6.4 0-9.6-6.4-9.6-12.8v-297.6c0-6.4 6.4-12.8 12.8-12.8h176l70.4 108.8v198.4c-3.2 9.6-9.6 16-16 16zM176 108.8c-9.6 0-19.2 9.6-19.2 19.2s6.4 19.2 19.2 19.2c9.6 0 19.2-6.4 19.2-19.2 0-9.6-9.6-19.2-19.2-19.2zM176 176c-9.6 0-16 6.4-16 16s6.4 19.2 19.2 19.2c9.6 0 19.2-6.4 19.2-19.2-3.2-9.6-12.8-16-22.4-16zM176 240c-9.6 0-19.2 6.4-19.2 19.2 0 9.6 6.4 19.2 19.2 19.2 9.6 0 19.2-6.4 19.2-19.2 0-12.8-9.6-19.2-19.2-19.2zM179.2 300.8c-9.6 0-19.2 9.6-19.2 19.2s6.4 19.2 19.2 19.2c9.6 0 19.2-6.4 19.2-19.2-3.2-9.6-9.6-19.2-19.2-19.2zM371.2 185.6l-70.4-108.8h-12.8v102.4c3.2 6.4 9.6 12.8 16 12.8h67.2v-6.4z" />
<glyph unicode="&#xe027;" d="M371.2 256c-9.6 9.6-22.4 25.6-41.6 44.8-54.4 54.4-67.2 54.4-70.4 54.4-3.2 0-6.4 0-9.6-3.2l-22.4-19.2c-19.2 22.4-44.8 48-60.8 51.2-6.4 0-9.6 0-12.8-3.2-3.2-3.2-6.4-6.4-6.4-16-3.2-12.8 12.8-44.8 38.4-76.8l-86.4-83.2c-9.6-12.8 3.2-35.2 9.6-41.6 9.6-12.8 22.4-32 38.4-48 9.6-9.6 54.4-51.2 76.8-51.2 6.4 0 9.6 3.2 12.8 6.4 0 0 0 0 0 0l137.6 137.6c0-16-9.6-41.6-16-57.6-22.4-41.6 28.8-60.8 48-25.6 22.4 67.2 6.4 99.2-35.2 131.2zM313.6 291.2c0 0 16-16 16-12.8-19.2 9.6-32 9.6-32 9.6s-19.2 16-19.2 16c-12.8 16-19.2 25.6-19.2 28.8 6.4-3.2 28.8-19.2 54.4-41.6zM172.8 352c9.6-6.4 22.4-19.2 38.4-38.4l-9.6-6.4c-12.8 19.2-22.4 35.2-28.8 44.8zM220.8 89.6c-9.6 3.2-28.8 16-57.6 44.8-25.6 25.6-38.4 48-41.6 54.4l16 16c9.6-19.2 32-44.8 44.8-54.4 9.6-9.6 35.2-35.2 54.4-44.8l-16-16zM252.8 121.6c-6.4 3.2-28.8 19.2-54.4 44.8-22.4 25.6-38.4 44.8-44.8 54.4l48 48c9.6-6.4 19.2-19.2 25.6-28.8 0 0 0 0 0 0 0-3.2 0-6.4 0-12.8 0-16 12.8-28.8 28.8-28.8 16 0 28.8 12.8 28.8 28.8 0 16-12.8 28.8-28.8 28.8-3.2 0-6.4 0-9.6 0 0 0 0 0 0 0-6.4 9.6-19.2 22.4-28.8 32l28.8 28.8c12.8-22.4 38.4-48 48-54.4 16-16 32-28.8 44.8-38.4 3.2-3.2 6.4-6.4 9.6-6.4l-96-96zM243.2 227.2c0 6.4 6.4 12.8 12.8 12.8s12.8-6.4 12.8-12.8c0-6.4-6.4-12.8-12.8-12.8-9.6 0-12.8 6.4-12.8 12.8z" />
<glyph unicode="&#xe028;" d="M361.6 348.8l-147.2-144-67.2 64-51.2-51.2 118.4-118.4 198.4 198.4z" />
<glyph unicode="&#xe029;" d="M380.8 150.4c6.4 9.6 16 12.8 25.6 12.8 3.2 9.6 6.4 22.4 9.6 35.2-9.6 3.2-16 12.8-16 25.6 0 9.6 6.4 19.2 16 25.6-3.2 12.8-6.4 22.4-9.6 35.2-9.6 0-19.2 3.2-25.6 12.8-6.4 9.6-3.2 19.2 0 28.8-6.4 9.6-16 16-25.6 25.6-9.6-6.4-19.2-6.4-28.8 0-6.4 3.2-12.8 12.8-12.8 22.4-9.6 3.2-22.4 6.4-32 9.6-6.4-9.6-16-16-25.6-16s-19.2 6.4-25.6 16c-9.6-3.2-22.4-6.4-32-9.6 0-9.6-3.2-19.2-12.8-25.6-9.6-6.4-19.2-3.2-28.8 0-12.8-6.4-19.2-16-25.6-22.4 6.4-9.6 6.4-19.2 0-28.8-6.4-9.6-16-16-25.6-16-3.2-9.6-6.4-22.4-9.6-32 9.6-6.4 16-16 16-25.6s-6.4-19.2-16-25.6c3.2-12.8 6.4-22.4 9.6-35.2 9.6 3.2 19.2-3.2 25.6-12.8 6.4-9.6 3.2-19.2 0-28.8 6.4-6.4 16-16 22.4-22.4 9.6 6.4 19.2 6.4 28.8 0 9.6-6.4 12.8-16 12.8-25.6 9.6-3.2 22.4-6.4 35.2-9.6 3.2 9.6 12.8 16 25.6 16 9.6 0 19.2-6.4 25.6-16 12.8 3.2 22.4 6.4 35.2 9.6 0 9.6 3.2 19.2 12.8 25.6s19.2 3.2 28.8 0c9.6 6.4 16 16 25.6 25.6-6.4 6.4-9.6 16-3.2 25.6zM256 169.6c-28.8 0-54.4 25.6-54.4 54.4s22.4 54.4 54.4 54.4 51.2-25.6 51.2-54.4c0-28.8-22.4-54.4-51.2-54.4z" />
<glyph unicode="&#xe02a;" d="M403.2 246.4h-12.8c0 9.6-3.2 16-6.4 25.6l12.8 6.4c3.2 3.2 6.4 9.6 3.2 16l-9.6 19.2c-6.4 6.4-12.8 6.4-19.2 3.2l-12.8-6.4c-6.4 6.4-12.8 12.8-19.2 19.2l6.4 12.8c3.2 6.4 0 12.8-3.2 16l-16 9.6c-6.4 3.2-12.8 0-16-3.2l-6.4-12.8c-9.6 3.2-16 3.2-25.6 6.4v12.8c0 6.4-6.4 12.8-12.8 12.8h-22.4c-6.4 0-9.6-6.4-9.6-12.8v-12.8c-9.6-3.2-16-3.2-25.6-6.4l-6.4 12.8c-3.2 3.2-9.6 6.4-16 3.2l-19.2-12.8c-6.4-3.2-6.4-9.6-3.2-12.8l6.4-12.8c-6.4-6.4-12.8-12.8-19.2-19.2l-12.8 6.4c-3.2 3.2-12.8 3.2-16-3.2l-9.6-19.2c-3.2-6.4 0-12.8 3.2-16l12.8-6.4c-3.2-9.6-3.2-16-6.4-25.6h-12.8c-6.4 0-12.8-6.4-12.8-12.8v-22.4c0-6.4 6.4-12.8 12.8-12.8h16c0-9.6 3.2-16 6.4-25.6l-16-3.2c-3.2-3.2-6.4-9.6-3.2-16l9.6-19.2c3.2-6.4 12.8-6.4 16-3.2l12.8 6.4c6.4-6.4 12.8-12.8 19.2-19.2l-6.4-12.8c-3.2-6.4 0-12.8 3.2-16l19.2-9.6c6.4-3.2 12.8 0 16 3.2l6.4 12.8c6.4-3.2 16-6.4 25.6-6.4v-16c0-3.2 3.2-9.6 9.6-9.6h22.4c6.4 0 12.8 6.4 12.8 12.8v16c9.6 0 16 3.2 25.6 6.4l6.4-12.8c3.2-6.4 9.6-6.4 16-3.2l19.2 9.6c6.4 3.2 6.4 9.6 3.2 16l-6.4 12.8c6.4 6.4 12.8 12.8 19.2 19.2l9.6-9.6c6.4-3.2 12.8 0 16 3.2l9.6 19.2c3.2 6.4 0 12.8-3.2 16l-12.8 6.4c3.2 6.4 6.4 16 6.4 25.6h16c6.4 0 12.8 6.4 12.8 12.8v19.2c0 6.4-6.4 12.8-12.8 12.8zM256 169.6c-28.8 0-54.4 25.6-54.4 54.4s22.4 54.4 54.4 54.4c28.8 0 54.4-22.4 54.4-54.4 0-28.8-25.6-54.4-54.4-54.4z" />
<glyph unicode="&#xe02d;" d="M224 384h64v-64h-64zM224 256h64v-64h-64zM224 128h64v-64h-64z" />
<glyph unicode="&#xe02e;" d="M96 256h64v-64h-64zM224 256h64v-64h-64zM352 256h64v-64h-64z" />
<glyph unicode="&#xe02f;" d="M224 256h64v-64h-64z" />
<glyph unicode="&#xe030;" d="M224 384h64v-64h-64zM96 384h64v-64h-64zM352 384h64v-64h-64zM96 256h64v-64h-64zM224 256h64v-64h-64zM352 256h64v-64h-64zM160 64h-64v64h64zM224 128h64v-64h-64zM352 128h64v-64h-64z" />
<glyph unicode="&#xe031;" d="M416 256l-128 128h128z" />
<glyph unicode="&#xe032;" d="M288 64l128 128v-128z" />
<glyph unicode="&#xe033;" d="M224 384l-128-128v128z" />
<glyph unicode="&#xe034;" d="M96 192l128-128h-128z" />
<glyph unicode="&#xe035;" d="M192 224c0-35.346 28.654-64 64-64s64 28.654 64 64c0 35.346-28.654 64-64 64-35.346 0-64-28.654-64-64z" />
<glyph unicode="&#xe036;" d="M96 192l128-128h-128zM224 384l-128-128v128zM416 256l-128 128h128zM288 64l128 128v-128zM192 224c0-35.346 28.654-64 64-64s64 28.654 64 64c0 35.346-28.654 64-64 64-35.346 0-64-28.654-64-64z" />
<glyph unicode="&#xe037;" d="M137.6 224v0 0l163.2-160 57.6 57.6-102.4 102.4 102.4 102.4-57.6 57.6z" />
<glyph unicode="&#xe038;" d="M374.4 224v0 0l-163.2 160-57.6-57.6 102.4-102.4-102.4-102.4 57.6-57.6z" />
<glyph unicode="&#xe039;" d="M416 272h-112v112h-96v-112h-112v-96h112v-112h96v112h112z" />
<glyph unicode="&#xe03a;" d="M400 272h-96v96c0 9.6-6.4 16-16 16h-64c-9.6 0-16-3.2-16-16v-96h-96c-9.6 0-16-6.4-16-16v-64c0-9.6 6.4-16 16-16h96v-96c0-6.4 6.4-16 16-16h64c9.6 0 16 6.4 16 16v96h96c9.6 0 16 6.4 16 16v64c0 9.6-6.4 16-16 16z" />
<glyph unicode="&#xe600;" d="M392.992 128c-11.392 28.608-35.36 58.688-60.544 90.016-19.264 24-38.784 48.448-50.24 69.984h37.792v128h-128v-128h45.6c-7.232-48.864-31.584-64.544-59.36-81.696-25.6-15.84-53.664-33.824-62.88-78.304h-51.36v-96h96v96h-12.224c7.424 26.432 25.024 37.312 47.296 51.072 14.848 9.184 31.072 19.68 44.928 35.84v-118.88h-16v-64h64v64h-16v148.096c10.624-15.040 22.944-30.432 35.52-46.112 19.264-24 38.784-48.448 50.24-69.984h-5.76v-96h96v96h-55.008z" />
<glyph unicode="&#xe601;" d="M227.328 115.808v222.72h-38.272c-7.52 0-11.296-5.088-11.296-15.2v-23.072l-50.016 3.456v83.392h256.512v-83.392l-50.016-3.424v23.072c0 5.568-0.8 9.472-2.432 11.776-1.696 2.272-5.568 3.424-11.808 3.424h-33.344v-234.432l38.688-1.504v-41.76h-138.24v39.808l26.016 1.44c9.44 0.96 14.208 5.6 14.208 13.696z" />
<glyph unicode="&#xe602;" d="M192 41.376l-150.624 150.624 86.624 86.624 64-64 160 160 86.624-86.624-246.624-246.624zM86.624 192l105.376-105.376 201.376 201.376-41.376 41.376-160-160-64 64-41.376-41.376z" />
<glyph unicode="&#xe603;" d="M273.938 44.625l142.333 71.271v213.334l-142.333-71.271zM232.632 264.507l-21.459 10.923 34.32-67.889v31.528zM197.347 282.472l-21.479 10.931 69.625-137.431v31.459zM161.958 300.486l-21.514 10.952 105.049-206.889v31.423zM126.472 318.548l-20.549 10.466-0.584-0.298 140.153-275.389v31.361zM102.771 313.347v-31.284l113.57-222.597 21.563-10.979zM102.771 261.757v-31.236l78.326-153.111 21.604-11zM102.771 210.327v-31.146l42.972-83.771 21.632-11.014zM110.271 113.466l21.681-11.034-29.18 56.709v-31.097zM234 407.173l-38.945-14.222h124.702l-38.209 14.222zM162.993 381.243l-38.945-14.222h265.368l-38.209 14.222zM110.174 355.305l30.993-14.222h235.993l31.514 14.222zM166.68 329.375l31-14.222h122.021l31.514 14.222zM262.25 289.222l31.514 14.222h-70.57l31-14.222z" />
<glyph unicode="&#xe604;" d="M238.278 31.195l-142.333 71.271v213.333l142.333-71.271zM266.722 31.195l142.722 72.659v213.334l-142.722-72.66zM253.68 273.958l156.465 70.778-155.583 57.771-156.507-57.299z" />
<glyph unicode="&#xe605;" d="M255.5 224c-112.516 0-127.5 31.828-127.5 31.828v-222.484c0 0 0-32 128.172-32s128.172 32 128.172 32v222.484c0 0-18.063-31.828-128.844-31.828zM318.031 387.625c-10.5 24.063-34.438 40.953-62.375 40.953-27.875 0-51.844-16.89-62.344-40.953-76.688-8.078-97.813-29.64-97.813-29.64v-48.656c0 0 32-48.688 160-48.688 128.344 0 160 48.672 160 48.672v48.672c0 0-20.906 21.547-97.469 29.64zM282 357.515c0 9.5-4.969 29.891-25.828 29.891-20.828 0-26.672-21.484-26.672-29.891h-24.5c0 23.985 16.984 52.985 50.5 52.985 33.532 0 50-31.5 50-52.985h-23.5z" />
<glyph unicode="&#xe606;" d="M447.072 288.192h-384.48l96.672 95.808h192zM383.68 256.512v-0.512h-254.496l-65.184-64h384zM384 160h-256l-65.408-64.992h384.48z" />
<glyph unicode="&#xe607;" d="M288 67.008c0-19.317-15.659-34.976-34.976-34.976s-34.976 15.659-34.976 34.976c0 19.317 15.66 34.976 34.976 34.976 19.317 0 34.976-15.659 34.976-34.976zM256 430.592c-57.856 0-104.768-40.8-104.8-103.872v0 0c0 0 0 0 0 0v0c0-19.872 16.128-36 36-36s36 16.128 36 36c0 11.488-5.728 21.28-14.112 27.872 8.512 19.744 26.24 30.336 46.912 30.336 28.96 0 52.352-20.352 52.352-58.208 0-26.976-3.36-38.272-29.248-61.408-44.64-37.408-62.24-60.384-62.24-104.224h52.416c0 28.384 11.296 42.304 32 63.104h0.8c37.376 26.24 58.688 57.504 58.688 102.528 0 63.040-46.848 103.872-104.768 103.872z" />
<glyph unicode="&#xe608;" d="M96 159.52v128l320 0.512v-128.512h-320zM128 192l256-0.512v64h-256v-63.488z" />
<glyph unicode="&#xe609;" d="M96 159.52v128l320 0.512v-128.512h-320z" />
<glyph unicode="&#xe60a;" d="M64.16 351.84v-287.68h383.84v287.68h-383.84zM403.712 319.84l-147.744-120.64-146.656 120.64h294.4zM96.16 96.16v193.12l1.664-1.376 158.048-130.080 160.128 130.72v-192.384h-319.84z" />
<glyph unicode="&#xe60b;" d="M426.176 351.68h-338.976l168.832-138.944zM255.968 161.184l-191.968 157.92v-222.752h384v221.632z" />
<glyph unicode="&#xe60c;" d="M239.776 447.168c-114.048 0-206.56-92.48-206.56-206.56s92.48-206.56 206.56-206.56 206.56 92.512 206.56 206.56-92.48 206.56-206.56 206.56zM239.776 98.080c-78.592 0-142.56 63.968-142.56 142.56s63.968 142.56 142.56 142.56 142.56-63.968 142.56-142.56-63.968-142.56-142.56-142.56zM256 319.52h-32v-127.52h96v32h-64z" />
<glyph unicode="&#xe60d;" d="M303.568 195.168l-124.704 72c-15.296 8.848-34.88 3.6-43.712-11.696-8.832-15.312-3.584-34.88 11.712-43.712l124.688-72c15.312-8.848 34.88-3.6 43.712 11.712 8.864 15.296 3.616 34.864-11.696 43.696zM200.72 273.024l96.992-56 32.992 91.808-66.976 38.656-63.008-74.464zM129.216 37.184l92.784 112.704-41.568 24-51.216-136.704zM370.784 359.6l-83.12 48c-11.488 6.624-26.16 2.704-32.784-8.784-6.64-11.488-2.688-26.16 8.784-32.784l83.136-48c11.488-6.624 26.16-2.704 32.784 8.784 6.624 11.488 2.688 26.16-8.8 32.784z" />
<glyph unicode="&#xe60e;" d="M328 240h-144c-17.664 0-32-14.336-32-32s14.336-32 32-32h144c17.664 0 32 14.336 32 32s-14.336 32-32 32zM217.328 352l-17.328-96h112l-17.344 96h-77.328zM256 16l24 144h-48l24-144zM208 368h96c13.248 0 24 10.752 24 24s-10.752 24-24 24h-96c-13.264 0-24-10.752-24-24s10.736-24 24-24z" />
<glyph unicode="&#xe60f;" d="M457.301 318.166l-85.291 85.76c-16.043 16.128-44.010 16.299-60.373 0.128-4.181-4.181-7.466-9.301-8.918-13.418-13.93-29.056-28.885-47.253-48.085-58.176l-4.63-2.24c-20.65-10.346-48.746-20.886-100.672-20.886-5.674 0-11.114-1.109-16.341-3.242-10.326-4.31-18.752-12.694-23.082-23.125-4.246-10.326-4.246-22.208 0-32.534 2.219-5.312 5.334-10.048 9.28-13.888l69.014-69.014-81.536-114.197 114.176 81.536 68.842-68.843c3.968-4.032 8.661-7.232 13.995-9.408 5.269-2.197 10.731-3.286 16.341-3.286s11.072 1.11 16.32 3.286c10.624 4.373 18.837 12.63 23.040 22.998 2.197 5.163 3.307 10.816 3.307 16.384 0 51.968 10.538 80.043 20.864 100.714 10.582 21.163 29.205 37.291 58.752 51.499 5.781 2.219 10.88 5.462 15.168 9.75 16.469 16.683 16.384 43.755-0.171 60.202zM345.344 215.744c-17.472-35.050-25.344-71.894-25.493-119.552l-170.518 170.475c45.632 0 81.365 7.146 115.114 23.125l5.014 2.24c29.846 14.912 52.651 40.384 72.278 81.792l83.712-86.421c-39.744-19.050-65.195-41.814-80.106-71.659z" />
<glyph unicode="&#xe610;" d="M401.632 162.56h0.064c-10.784 12.736-15.52 11.936-18.56 62.176-3.168 50.24 18.56 65.76 18.56 65.76s-0.448 0-0.576 0c22.24 13.184 37.408 37.216 37.408 64.992 0 41.856-33.952 75.808-75.744 75.808-41.888 0-75.776-33.984-75.776-75.808 0-4.224 0.576-8.384 1.248-12.448-0.192 0.32-0.224 0.384-0.224 0.384s-0.096-21.216-38.016-45.152c-37.888-23.968-48.704-19.36-71.904-18.528 0.16-0.224 0.288-0.416 0.512-0.576-11.52 7.072-24.896 11.328-39.392 11.328-41.856 0-75.808-33.952-75.808-75.776 0-41.92 33.984-75.808 75.808-75.808 18.624 0 35.424 7.008 48.64 18.176 0.032-0.16 0.096-0.32 0.096-0.32s26.816 10.016 63.040-13.216c7.616-3.104 42.368-20.096 46.048-47.264 0.16 0.192 0.256 0.448 0.48 0.64-0.096-1.472-0.48-2.912-0.48-4.416 0-41.92 33.92-75.84 75.808-75.84 41.856 0 75.744 33.952 75.744 75.84 0 31.616-19.456 58.688-46.976 70.048zM261.632 164.416c-15.424 9.312-47.648 29.44-46.656 54.176-0.096-0.16-0.192-0.352-0.352-0.48-0.096 2.56-0.384 5.056-0.736 7.52 0.128-0.352 0.384-0.864 0.384-0.864s-1.376 20.128 40.384 47.968c41.824 27.84 65.088 19.968 69.152 17.792-0.16 0.16-0.192 0.288-0.32 0.48 5.504-3.36 11.456-5.92 17.824-7.84-0.16-0.032-0.448-0.064-0.672-0.096 7.2-10.592 12.288-10.304 16.864-57.248 4.672-46.944-16.864-64.672-16.864-64.672s0.384 0 0.448 0c-6.4-2.912-12.192-6.848-17.472-11.392 0.032 0.192 0.192 0.576 0.192 0.576s-20.416-11.424-62.176 14.080z" />
<glyph unicode="&#xe611;" d="M246.422 132.875c-25.563 153.735-38.344 236.703-38.344 248.875 0 14.813 4.922 26.781 14.766 35.906 9.828 9.125 20.938 13.688 33.313 13.688 13.39 0 24.688-4.86 33.938-14.594 9.219-9.75 13.844-21.219 13.844-34.391 0-12.578-12.813-95.75-38.36-249.484h-19.156zM298.438 59.25c0-11.75-4.125-21.813-12.485-30.125-8.297-8.375-18.25-12.5-29.797-12.5-11.766 0-21.813 4.125-30.125 12.5-8.313 8.313-12.469 18.375-12.469 30.125 0 11.563 4.156 21.5 12.469 29.813s18.359 12.438 30.125 12.438c11.547 0 21.5-4.125 29.797-12.438 8.36-8.313 12.485-18.25 12.485-29.813z" />
<glyph unicode="&#xe612;" d="M383.219 237c0 0-81.188 149.61-127.734 149.61-46.563 0-127.75-146.11-127.75-146.11s-81.859-136.156-58.563-176.5c23.281-40.344 186.266-37 186.266-37s162.969-3.313 186.25 37c23.281 40.344-58.469 173-58.469 173zM280.422 72.875c-6.703-6.719-15.344-10.313-24.922-10.313-9.641 0-18.328 3.594-25.109 10.375-6.813 6.781-10.422 15.469-10.422 25.125 0 9.563 3.609 18.219 10.438 25.031 13.469 13.469 36.469 13.594 50.094-0.063 6.781-6.719 10.438-15.375 10.438-24.969 0-9.656-3.656-18.375-10.515-25.188zM275.61 181.438l-2.235-36.938h-35.906l-2.203 36.938c-17.797 106.953-17.797 113.515-17.797 116.672 0 11.234 4.109 20.968 11.891 28.188 15.438 14.39 39.391 13.531 53.297-1.141 7.063-7.453 10.75-16.703 10.75-26.766 0-3.25 0-10-17.797-116.953z" />
<glyph unicode="&#xe613;" d="M415.936 192v-96h-287.936v96h-64v-160h415.936v160zM319.904 272.192v159.776h-95.936v-159.776h-64.192l115.008-112.128 109.376 112.128z" />
<glyph unicode="&#xe614;" d="M415.936 192v-96h-287.936v96h-64v-160h415.936v160zM224.064 319.776v-159.776h95.936v159.776h64.192l-115.008 112.128-109.376-112.128z" />
<glyph unicode="&#xe615;" d="M384 192v-96h-256v96h-64v-160h384v160zM224.064 319.776v-159.776h64v159.776h64.192l-96.224 96.224-96.224-96.224z" />
<glyph unicode="&#xe616;" d="M384 192v-96h-256v96h-64v-160h384v160zM288 255.552v160.448h-64v-160.448h-64.192l96.224-96.224 96.224 96.224z" />
<glyph unicode="&#xe617;" d="M96 62.656l0.448 353.152 316.896-193.12z" />
<glyph unicode="&#xe618;" d="M96 30.176l0.448 417.344 316.896-224.832z" />
<glyph unicode="&#xe619;" d="M256 105.6v0 0l-160 163.2 57.6 57.6 102.4-102.4 102.4 102.4 57.6-57.6z" />
<glyph unicode="&#xe61a;" d="M256 342.4v0 0l160-163.2-57.6-57.6-102.4 102.4-102.4-102.4-57.6 57.6z" />
<glyph unicode="&#xe61b;" d="M170.477 248.178c-12.113 12.116-16.115 29.261-12.020 44.707 0.734 2.767-1.85 8.32-6.854 8.702-2.183 0.171-7.571 0.033-13.017-0.027l-58.781-58.781c-12.771-12.773-13.064-33.195-0.655-45.607l61.622-61.619c-0.603-1.878-1.68-3.453-3.603-3.915-1.732-0.414-5.459-0.754-9.937-1.186-14.915 2.415-30.731-2.076-42.233-13.575-19.006-19.006-19.006-49.821 0-68.826s49.822-19.005 68.827 0.002c3.521 3.52 6.383 7.449 8.599 11.633 0.519-0.047 1.048-0.117 1.564-0.126 7.718 13.329 2.333 36.505 7.532 37.724 1.668 0.561 3.725 1.216 5.693 1.824l55.506-55.505c12.411-12.414 32.828-12.113 45.603 0.653l57.385 57.389c0.027 6.285 0.247 13.226 0.052 15.785-0.385 5.010-5.938 7.59-8.705 6.859-15.443-4.101-32.594-0.095-44.706 12.021-18.102 18.098-18.102 47.447 0 65.545 18.1 18.102 47.447 18.1 65.547 0 10.017-10.017 14.49-23.471 13.423-36.568-0.158-1.941-0.054-21.423 4.576-21.079 3.776-0.581 8.103-0.207 12.187-0.189l52.5 52.501c12.775 12.773 13.071 33.189 0.656 45.601l-61.768 61.77c0.539 2.218 1.641 4.2 3.836 4.728 5.648 1.35 32.376 1.898 37.859 7.394 0.014 0.017 0.016 0.060 0.031 0.081 4.997 2.333 9.699 5.51 13.824 9.635 19.009 19.004 19.009 49.817 0.002 68.825-19.008 19.007-49.82 19.003-68.825 0.001-4.137-4.139-7.316-8.854-9.651-13.865-0.023 0.001-0.044 0.004-0.063 0.008-2.454-4.241-3.575-9.471-4.142-14.678-0.106-0.866-0.184-1.734-0.243-2.6-0.787-10.226 0.126-19.682-3.146-20.45-1.895-0.634-4.298-1.39-6.49-2.070l-54.795 54.79c-12.41 12.414-32.829 12.122-45.602-0.654l-53.921-53.919c-0.086-3.214-0.217-6.469 0.232-9.393-0.346-4.628 19.14-4.734 21.086-4.574 13.092 1.067 26.547-3.408 36.565-13.421 18.1-18.104 18.101-47.45 0-65.55-18.101-18.098-47.447-18.1-65.55-0.001z" />
<glyph unicode="&#xe61c;" d="M105.409 214.899l6.357 6.334c0 0 5.366 24.754 0.057 30.082-5.504 5.525-31.476 0.069-31.476 0.069l-5.287-4.989-4.915 4.997c0 0-25.066 5.571-30.591 0.067-5.765-5.74-0.657-32.545-0.657-32.545l3.889-3.868-3.904-3.932c0 0-5.073-26.8 0.669-32.563 5.546-5.563 30.449-0.087 30.449-0.087l4.966 5.515 5.286-5.47c0 0 25.868-5.604 31.435-0.060 5.329 5.305 0.057 30.084 0.057 30.084l-6.335 6.366zM77.883 214.338c2.303-2.338 5.328-3.513 7.127-2.77 1.367 0.537 2.801 0.808 4.273 0.808 3.139 0 6.061-1.214 8.228-3.416 4.42-4.485 4.372-11.769-0.106-16.234-2.184-2.113-5.050-3.275-8.080-3.275 0 0 0 0-0.001 0-3.102 0-6.003 1.213-8.168 3.412-3.193 3.252-4.161 8.288-2.409 12.533 0.777 1.783-0.271 4.44-2.667 6.78l-0.945 0.969-0.511-0.512c-3.736-3.688-5.684-8.111-5.087-11.545 0.194-2.935-0.888-5.821-2.884-7.789-1.816-1.785-4.24-2.769-6.825-2.769-2.657 0-5.153 1.023-7.030 2.878-3.698 3.862-3.606 10.034 0.19 13.771 1.992 1.956 4.901 2.982 7.761 2.774 0.54-0.1 1.039-0.146 1.555-0.146 3.364 0 7.259 1.855 10.419 4.959l0.42 0.408-1.85 1.892c-2.919 3.065-6.674 4.721-9.531 4.235-0.239-0.020-0.411-0.025-0.583-0.025-2.229 0-4.378 0.887-5.896 2.433-3.122 3.172-3.093 8.361 0.064 11.566 1.524 1.46 3.514 2.256 5.617 2.256 2.223 0 4.308-0.873 5.871-2.456 1.658-1.698 2.496-4.053 2.299-6.463-0.509-2.745 1.116-6.372 4.233-9.53l1.824-1.916 0.844 0.82c2.474 2.432 3.544 5.055 2.792 6.847-1.699 4.345-0.674 9.231 2.606 12.462 2.153 2.11 5.004 3.273 8.027 3.273 3.086 0 5.986-1.201 8.166-3.381 4.391-4.538 4.318-11.802-0.156-16.203-2.15-2.109-5.015-3.271-8.069-3.271-1.53 0-3.015 0.292-4.412 0.868-1.843 0.796-4.664-0.293-7.021-2.607l-0.843-0.844 0.758-0.792zM210.242 254.868h7.633c1.222 0 2.95-1.328 2.95-2.541v-7.737h-7.532c-1.524 0-3.051 1.125-3.051 2.444v7.834zM210.242 236.042c7.655 0 10.683 0.974 10.683-5.795v-47.211c0 0-10.683 0-10.683 5.804v47.202zM268.389 218.745c0 6.208-2.953 9.154-11.092 9.154-6.31 0-10.889-1.829-10.889-1.829v-43.342c0 0-10.681 0-10.681 5.804v47.508c0 0 3.971-2.029 7.426-2.029 5.089 0 9.868 2.231 15.569 2.231 5.797 0 12.209-1.423 15.666-4.877 1.016 0.914 6.104 4.877 17.605 4.877 10.27 0 19.734-5.082 19.734-16.582v-36.932c0 0-10.678 0.204-10.678 5.804v29.81c0 6.813-4.076 9.662-10.385 9.662-5.797 0-11.496-3.050-11.596-7.632v-37.643c0 0-10.682 0.106-10.682 5.804v30.212zM360.174 260.796c0.607 0 10.678 0.105 10.678-6.815v-70.812c-2.439 1.117-5.285 1.427-7.531 1.427-4.777 0-9.557-1.733-14.24-1.733-13.734 0-21.566 6.111-21.566 16.892v20.345c0 10.483 8.852 16.786 19.021 16.786 10.377 0 14.553-4.783 14.553-4.783s-0.914 2.849-0.914 7.632v21.061zM360.174 219.592c0 5.398-6.209 9.162-12.312 9.162-5.592 0-9.668-3.052-9.668-10.175v-17.295c0-6.921 2.646-10.278 12.105-10.278 6.105 0 9.875 1.828 9.875 1.828v26.758zM428.617 193.862c0-7.228-8.953-11.501-19.838-11.501-14.137 0-22.688 6.41-22.688 17.094v19.836c0 10.686 7.424 17.094 21.162 17.094 13.734 0 20.754-6.409 20.754-16.073 0-8.441-5.393-15.871-20.855-15.871-3.363 0-7.633 0.613-10.375 2.135v-5.593c0-6.61 3.455-9.969 12.002-9.969 9.768 0 16.889 3.965 16.988 10.576 1.932-2.848 2.85-5.39 2.85-7.728zM396.777 214.518c0.502-0.211 5.391-1.423 9.051-1.423 8.549 0 11.498 2.636 11.498 7.218 0 4.678-2.748 7.94-10.279 7.94-8.137 0-10.27-3.869-10.27-10.481v-3.254zM460.391 202.977l-8.748-14.956c-2.441-4.276-7.119-5.191-9.863-5.191-1.83 0-4.99 0.513-4.99 0.513 2.236 2.751 3.053 4.378 4.787 7.324l7.123 12.003c2.436 4.175 6.352 7.244 6.352 7.244s-4.221 2.429-6.352 6.085l-7.434 12.514c-1.424 2.339-2.24 3.973-4.477 6.823 0 0 3.16 0.502 4.99 0.502 2.744 0 7.117-1.012 9.664-5.188l8.252-17.103 9.65 17.103c2.549 4.176 6.92 5.188 9.67 5.188 1.828 0 4.984-0.502 4.984-0.502-2.24-2.851-3.057-4.484-4.479-6.823l-7.426-12.514c-2.137-3.656-7.154-6.277-7.154-6.277s4.709-2.877 7.154-7.052l7.123-12.003c1.725-2.946 2.541-4.573 4.781-7.324 0 0-3.156-0.513-4.984-0.513-2.75 0-7.428 0.915-9.871 5.191l-8.752 14.956zM192.818 190.766l-7.119 12.003c-2.439 4.176-6.981 8.038-6.981 8.038l-0.779 0.569c1.411 0.599 4.646 2.208 6.289 5.022l7.425 12.513c1.425 2.337 2.239 3.973 4.483 6.823 0 0-3.157 0.5-4.986 0.5-2.754 0-7.124-1.011-9.668-5.188l-8.271-13.91-0.531-0.525-7.629 14.137c-2.544 4.177-6.919 5.188-9.669 5.188-1.833 0-4.983-0.502-4.983-0.502 2.236-2.849 3.055-4.484 4.473-6.824l7.427-12.513c1.058-1.814 3.233-3.557 4.991-4.846-1.221-1.507-13.232-16.246-17.661-18.323-3.097-1.451-10.984-1.001-10.838 7.020 0 0-3.699-10.968 1.058-16.068 5.364-5.749 12.559-4.771 19.259 1.17 6.779 6.014 11.472 17.57 13.067 20.782l1.828-2.757 8.749-14.956c2.441-4.273 7.122-5.188 9.867-5.188 1.832 0 4.986 0.511 4.986 0.511-2.242 2.751-3.057 4.379-4.787 7.324z" />
<glyph unicode="&#xe61d;" d="M332.56 134.543h-64.015l0.062-48.958h-148.058l0.048 287.937h147.849l0.021-50.724h64.142l-0.049 114.723-276.011 0.001v-415.937l276.013 0.002-0.002 112.956zM378.41 267.489h-159.774l-0.001-75.936h159.775v-74.191l112.129 115.008-112.129 109.376v-74.257z" />
<glyph unicode="&#xe61e;" d="M472.815 328.063l-45.998 45.68-4.526 0.005c-1.544 0.002-3.142 0.020-4.652 0.036-1.503 0.017-2.925 0.032-4.139 0.032-1.771 0-2.917-0.031-3.836-0.105-4.831-0.389-9.252-2.955-12.128-7.038-2.834-4.023-3.837-8.985-2.683-13.268 2.168-8.056-0.131-16.731-6-22.641-4.433-4.464-10.338-6.922-16.63-6.922-6.229 0-12.094 2.417-16.515 6.808-9.17 9.108-9.223 23.978-0.119 33.147 4.867 4.899 11.563 7.395 18.48 6.852 0.32-0.025 0.875-0.058 1.994-0.058 16.632 0 20.678 4.372 22.201 6.017 1.977 2.137 3.115 4.781 3.291 7.583 0.337 2.767 0.254 5.433 0.181 7.808-0.023 0.746-0.048 1.489-0.054 2.222l-0.040 4.522-42.352 42.061c-6.751 6.706-15.658 10.399-25.081 10.399-9.252 0-17.903-3.581-24.359-10.083l-32.55-32.775c-1.016 6.979-2.457 12.323-5.327 16.104-2.279 4.441-5.19 8.435-8.67 11.892-8.895 8.833-20.697 13.699-33.232 13.699-12.659 0-24.543-4.947-33.462-13.928-18.324-18.449-18.221-48.368 0.228-66.692 3.618-3.595 7.811-6.568 12.478-8.85l0.123-0.071c4.055-2.327 9.015-3.776 15.163-4.43 0.234-0.028 0.47-0.054 0.708-0.078l-29.167-29.37c-6.559-6.602-10.078-15.414-9.911-24.811 0.032-1.82 0.208-3.618 0.511-5.385-6.924 0.297-14.021-2.249-19.391-7.618l-44.884-44.886c-0.022-4.917-0.194-10.345-0.042-12.346 0.303-3.918 4.645-5.938 6.809-5.364 12.080 3.205 25.493 0.073 34.967-9.4 14.158-14.158 14.158-37.112 0-51.271-14.156-14.157-37.111-14.155-51.268 0.001-7.834 7.834-11.334 18.359-10.499 28.601 0.124 1.521 0.042 16.761-3.579 16.49-2.953 0.452-6.338 0.161-9.531 0.147l-41.064-41.063c-9.991-9.992-10.221-25.96-0.512-35.668l120.117-120.116c9.706-9.708 25.676-9.48 35.668 0.512l42.173 42.174c0.069 2.515 0.169 5.062-0.181 7.347 0.269 3.62-14.972 3.703-16.492 3.577-10.242-0.833-20.766 2.666-28.6 10.498-14.158 14.159-14.158 37.113 0 51.271 14.158 14.156 37.111 14.156 51.27 0 9.473-9.475 12.605-22.887 9.401-34.967-0.575-2.165 1.446-6.509 5.362-6.807 1.707-0.135 5.922-0.026 10.18 0.021l45.977 45.977c5.761 5.761 8.269 13.51 7.504 20.9 1.733-0.26 3.497-0.393 5.278-0.393 9.253 0 17.904 3.581 24.358 10.083l113.714 114.5c13.446 13.543 13.15 35.721-0.662 49.438zM457.864 294.126l-113.715-114.5c-2.294-2.312-5.4-3.584-8.747-3.584-3.575 0-6.977 1.423-9.579 4.009l-38.709 38.439c0.757-0.037 1.517-0.057 2.275-0.057 12.195 0 23.645 4.765 32.241 13.418 17.654 17.78 17.553 46.607-0.225 64.259-8.569 8.512-19.94 13.2-32.019 13.2-12.196 0-23.646-4.766-32.241-13.419-9.107-9.172-13.851-21.712-13.126-34.602l-31.723 31.504c-2.563 2.546-4.010 5.887-4.072 9.407-0.061 3.401 1.19 6.567 3.524 8.917l45.237 45.552-1.97 6.323c-0.494 1.585-1.044 3.308-1.521 4.73-2.656 9.346-12.726 9.638-19.438 9.833-1.798 0.052-3.657 0.106-5.487 0.241l-0.128 0.009c-0.434 0.027-0.868 0.063-1.3 0.115l-0.163 0.018c-2.113 0.222-3.637 0.544-4.73 0.876l-2.725 1.258c-2.723 1.256-5.139 2.923-7.183 4.954-9.844 9.777-9.899 25.739-0.124 35.582 4.759 4.792 11.099 7.431 17.853 7.431 6.688 0 12.984-2.596 17.728-7.307 2.038-2.025 3.72-4.427 5-7.139l1.023-2.169 0.543-0.458c1.065-3.272 1.876-11.456 2.24-15.125 0.413-4.162 0.649-6.42 1.101-8.276 1.334-5.51 5.585-9.501 11.663-10.949l6.005-1.431 50.088 50.433c2.296 2.312 5.403 3.585 8.749 3.585 3.574 0 6.976-1.423 9.578-4.008l32.826-32.602c-0.362-0.004-0.761-0.004-0.994 0-1.126 0.084-2.268 0.126-3.396 0.126-12.195 0-23.646-4.766-32.245-13.421-17.652-17.778-17.551-46.605 0.226-64.259 8.568-8.512 19.939-13.199 32.018-13.199 12.198 0 23.648 4.766 32.24 13.42 9.606 9.672 14.278 23.164 12.97 36.523 0.092-0.001 0.184-0.002 0.275-0.003l39.604-39.329c5.208-5.167 5.454-13.389 0.553-18.325z" />
<glyph unicode="&#xe61f;" d="M141 171v253h-85v-329h40c1 13.856 20.268 55 45 76zM442 200v225h-85v-193c28.775-5.019 57.638-16.301 85-32zM292 234v190h-85v-219c23.865 13.509 52.417 24.675 85 29zM322.959 185.653c-107.954 0.040-166.959-94.705-166.959-94.705s54.229-94.762 166.889-94.804c96.654-0.036 167.025 94.679 167.025 94.679s-68.201 94.792-166.955 94.83zM322.346 26.509c-35.092 0.014-63.58 28.409-63.566 63.503 0.014 35.115 28.521 63.557 63.613 63.543 35.117-0.013 63.537-28.475 63.523-63.59-0.014-35.095-28.453-63.469-63.57-63.456zM322.383 124.066c-17.547 0.007-31.779-14.214-31.785-31.784-0.008-17.523 14.213-31.755 31.76-31.762 17.57-0.006 31.826 14.215 31.834 31.738 0.005 17.57-14.239 31.801-31.809 31.808z" />
<glyph unicode="&#xe620;" d="M464.221 231.877c-1.64 1.629-3.391 3.13-5.24 4.495l0.027 1.524-5.637 3.236c-4.777 2.744-10.15 3.906-15.17 4.439l29.179 29.379c6.557 6.604 10.075 15.415 9.908 24.812-0.165 9.278-3.919 18.024-10.567 24.626l-46 45.683-4.529 0.004c-1.563 0.001-3.183 0.019-4.711 0.036-1.489 0.017-2.896 0.032-4.099 0.032-1.756 0-2.895-0.031-3.815-0.105-4.831-0.391-9.251-2.957-12.126-7.041-2.833-4.023-3.835-8.984-2.682-13.267 2.168-8.055-0.132-16.731-6-22.641-4.432-4.463-10.337-6.921-16.63-6.921-6.229-0.001-12.094 2.417-16.515 6.808-9.17 9.107-9.223 23.978-0.119 33.146 4.437 4.465 10.346 6.924 16.641 6.924 0.611 0 1.229-0.024 1.832-0.071 0.322-0.025 0.882-0.059 2.010-0.059 16.626 0 20.671 4.371 22.193 6.017 1.978 2.136 3.115 4.78 3.291 7.583 0.337 2.768 0.254 5.434 0.181 7.809-0.023 0.745-0.048 1.488-0.054 2.22l-0.040 4.522-42.352 42.063c-6.751 6.705-15.658 10.398-25.081 10.398-9.252 0-17.903-3.581-24.359-10.083l-32.552-32.775c-1.016 6.979-2.457 12.324-5.327 16.104-2.278 4.44-5.189 8.434-8.67 11.893-8.896 8.833-20.698 13.699-33.232 13.699-12.659 0-24.543-4.947-33.461-13.929-8.878-8.938-13.743-20.798-13.699-33.395 0.044-12.596 4.99-24.422 13.926-33.296 3.615-3.592 7.808-6.566 12.476-8.85l0.122-0.070c4.054-2.328 9.016-3.778 15.167-4.432 0.232-0.027 0.468-0.053 0.706-0.077l-29.167-29.37c-6.559-6.602-10.078-15.414-9.911-24.811 0.032-1.82 0.208-3.618 0.511-5.385-6.924 0.297-14.021-2.249-19.391-7.618l-44.884-44.886c-0.022-4.917-0.194-10.346-0.042-12.346 0.303-3.918 4.644-5.938 6.809-5.364 12.080 3.205 25.493 0.073 34.967-9.4 14.158-14.158 14.158-37.112 0-51.271-14.157-14.157-37.111-14.155-51.269 0.001-7.833 7.834-11.333 18.359-10.499 28.601 0.124 1.521 0.042 16.761-3.579 16.49-2.954 0.452-6.338 0.161-9.532 0.147l-41.064-41.063c-9.991-9.992-10.221-25.96-0.512-35.668l48.312-48.313c-0.421-1.735-1.283-3.285-3-3.697-4.418-1.057-25.326-1.485-29.611-5.783-0.013-0.014-0.014-0.047-0.024-0.063-3.909-1.824-7.587-4.31-10.814-7.536-14.867-14.865-14.867-38.965-0.001-53.831 14.867-14.867 38.967-14.864 53.832 0 3.235 3.235 5.723 6.923 7.55 10.844 0.016-0.001 0.034-0.004 0.048-0.006 1.918 3.316 2.796 7.408 3.239 11.48 0.084 0.678 0.145 1.354 0.19 2.033 0.617 7.997-0.098 15.394 2.461 15.995 1.482 0.495 3.361 1.087 5.078 1.618l42.857-42.856c9.707-9.708 25.677-9.48 35.668 0.512l42.173 42.174c0.069 2.515 0.168 5.062-0.181 7.347 0.269 3.62-14.971 3.703-16.492 3.577-10.242-0.833-20.765 2.666-28.6 10.498-14.157 14.159-14.157 37.113 0 51.271 14.158 14.156 37.112 14.156 51.271 0 9.473-9.475 12.604-22.887 9.4-34.967-0.574-2.165 1.445-6.509 5.362-6.807 1.707-0.135 5.922-0.026 10.18 0.021l45.977 45.977c5.761 5.761 8.269 13.51 7.504 20.9 1.733-0.26 3.497-0.393 5.278-0.393 9.253 0 17.904 3.581 24.358 10.083l30.729 30.94c1.493-9.915 6.113-19.241 13.362-26.442 8.896-8.833 20.698-13.697 33.231-13.697 12.659 0 24.544 4.947 33.464 13.929 18.325 18.45 18.223 48.369-0.23 66.695zM448.843 180.684c-4.76-4.792-11.101-7.432-17.854-7.432-6.687 0-12.984 2.596-17.729 7.307-5.703 5.666-8.352 13.821-7.082 21.814l0.222 1.401-0.201 2.033c-0.412 4.154-0.648 6.408-1.103 8.271-1.22 5.018-4.964 8.863-10.272 10.551l-6.403 2.036-50.365-50.713c-2.294-2.312-5.4-3.584-8.747-3.584-3.575 0-6.977 1.423-9.579 4.009l-38.709 38.439c0.757-0.037 1.517-0.057 2.275-0.057 12.195 0 23.645 4.765 32.241 13.418 8.552 8.612 13.238 20.039 13.196 32.176-0.042 12.138-4.809 23.532-13.421 32.084-8.569 8.511-19.94 13.198-32.018 13.198-12.196 0-23.646-4.765-32.242-13.419-9.109-9.172-13.853-21.714-13.125-34.604l-31.723 31.504c-2.563 2.546-4.010 5.888-4.073 9.409-0.061 3.401 1.19 6.567 3.523 8.916l45.239 45.554-1.973 6.325c-0.494 1.584-1.043 3.305-1.519 4.726-2.655 9.347-12.725 9.639-19.437 9.834-1.798 0.052-3.658 0.106-5.488 0.242l-0.146 0.010c-0.429 0.026-0.858 0.062-1.286 0.113l-0.161 0.018c-2.116 0.223-3.64 0.544-4.733 0.877l-2.718 1.255c-2.727 1.259-5.144 2.926-7.186 4.955-4.769 4.736-7.408 11.045-7.431 17.765-0.023 6.72 2.572 13.047 7.309 17.816 4.758 4.792 11.098 7.431 17.851 7.431 6.688 0 12.984-2.596 17.728-7.307 2.038-2.025 3.72-4.427 5-7.138l1.135-2.407 0.478-0.367c1.042-3.364 1.835-11.363 2.194-14.979 0.413-4.162 0.649-6.421 1.102-8.278 1.334-5.506 5.583-9.496 11.657-10.947l6.008-1.436 50.091 50.437c2.296 2.312 5.403 3.585 8.749 3.585 3.574 0 6.976-1.423 9.578-4.007l32.825-32.598c-0.362-0.005-0.759-0.005-0.991 0-1.125 0.083-2.266 0.126-3.393 0.126-12.198 0-23.651-4.766-32.25-13.421-17.652-17.778-17.551-46.605 0.226-64.259 8.57-8.513 19.941-13.2 32.020-13.199 12.197 0.001 23.647 4.767 32.239 13.42 9.605 9.673 14.277 23.164 12.969 36.523 0.092-0.001 0.184-0.002 0.276-0.003l39.604-39.331c2.563-2.545 4.010-5.886 4.072-9.407 0.061-3.402-1.19-6.569-3.521-8.917l-45.785-46.1 1.998-6.34c0.442-1.404 0.912-2.868 1.329-4.106 2.655-9.343 12.719-9.633 19.428-9.826 2.613-0.075 5.787-0.167 8.575-0.565l5.374-2.823c2.217-1.164 4.246-2.653 6.030-4.426 9.843-9.777 9.899-25.739 0.123-35.582z" />
<glyph unicode="&#xe621;" d="M141 161v263h-85v-329h40c1 13.856 20.268 45 45 66zM442 200v225h-85v-193c28.775-5.019 57.638-16.301 85-32zM292 234v190h-85v-219c23.865 13.509 52.417 24.675 85 29zM322.959 185.653c-107.954 0.040-166.959-94.705-166.959-94.705s54.229-94.762 166.889-94.804c96.654-0.036 167.025 94.679 167.025 94.679s-68.201 94.792-166.955 94.83zM322.346 26.509c-35.092 0.014-63.58 28.409-63.566 63.503 0.014 35.115 28.521 63.557 63.613 63.543 35.117-0.013 63.537-28.475 63.523-63.59-0.014-35.095-28.453-63.469-63.57-63.456zM322.383 124.066c-17.547 0.007-31.779-14.214-31.785-31.784-0.008-17.523 14.213-31.755 31.76-31.762 17.57-0.006 31.826 14.215 31.834 31.738 0.005 17.57-14.239 31.801-31.809 31.808z" />
<glyph unicode="&#xe622;" d="M140.732 170v253h-84.732v-328.855h44c1 13.855 16 54.855 40.732 75.855zM442 199.693v223.307h-84.731v-190.451c28.775-5.020 57.341-16.089 84.731-32.856zM291.366 233.644v189.356h-84.732v-218.105c23.866 13.508 52.149 24.424 84.732 28.749zM322.959 185.653c-107.954 0.040-166.959-94.705-166.959-94.705s54.229-94.762 166.889-94.804c96.654-0.036 167.025 94.679 167.025 94.679s-68.201 94.792-166.955 94.83zM322.346 26.509c-35.092 0.014-63.58 28.409-63.566 63.503 0.014 35.115 28.521 63.557 63.613 63.543 35.117-0.013 63.537-28.475 63.523-63.59-0.014-35.095-28.453-63.469-63.57-63.456zM322.383 124.066c-17.547 0.007-31.779-14.214-31.785-31.784-0.008-17.523 14.213-31.755 31.76-31.762 17.57-0.006 31.826 14.215 31.834 31.738 0.005 17.57-14.239 31.801-31.809 31.808z" />
<glyph unicode="&#xe623;" d="M314.082 15.872c8.982 8.92 13.93 20.805 13.93 33.464 0 12.533-4.865 24.336-13.697 33.231-7.201 7.249-16.527 11.869-26.443 13.362l30.941 30.729c6.502 6.454 10.082 15.105 10.083 24.358 0 1.781-0.133 3.545-0.393 5.278 7.391-0.765 15.141 1.743 20.9 7.504l45.977 45.977c0.049 4.258 0.156 8.473 0.021 10.18-0.297 3.917-4.641 5.937-6.807 5.362-12.080-3.204-25.492-0.072-34.967 9.4-14.156 14.159-14.156 37.112 0 51.271 14.158 14.158 37.111 14.158 51.271 0 7.832-7.834 11.33-18.357 10.498-28.6-0.127-1.521-0.043-16.761 3.576-16.492 2.285-0.35 4.832-0.25 7.348-0.181l42.174 42.173c9.992 9.992 10.219 25.962 0.512 35.668l-42.857 42.857c0.531 1.717 1.123 3.596 1.619 5.078 0.602 2.559 7.998 1.844 15.994 2.461 0.68 0.045 1.355 0.106 2.033 0.19 4.072 0.442 8.164 1.321 11.48 3.239-0.002 0.014-0.004 0.031-0.006 0.048 3.922 1.827 7.609 4.315 10.844 7.55 14.865 14.865 14.867 38.966 0 53.832-14.865 14.865-38.965 14.865-53.83-0.001-3.227-3.228-5.713-6.905-7.537-10.813-0.016-0.011-0.049-0.012-0.062-0.025-4.299-4.285-4.727-25.192-5.783-29.611-0.412-1.717-1.963-2.578-3.697-3l-48.314 48.313c-9.707 9.709-25.676 9.479-35.668-0.512l-41.063-41.064c-0.014-3.193-0.305-6.578 0.148-9.531-0.271-3.621 14.97-3.703 16.489-3.579 10.242 0.835 20.768-2.665 28.602-10.499 14.156-14.156 14.158-37.111 0-51.268-14.158-14.158-37.111-14.158-51.271 0-9.473 9.474-12.605 22.887-9.4 34.967 0.574 2.164-1.446 6.506-5.364 6.809-2 0.152-7.429-0.020-12.346-0.042l-44.886-44.884c-5.37-5.37-7.915-12.467-7.618-19.391-1.767 0.303-3.564 0.479-5.385 0.51-9.397 0.168-18.209-3.352-24.811-9.91l-29.37-29.168c-0.024 0.238-0.050 0.474-0.077 0.706-0.654 6.151-2.104 11.113-4.432 15.167l-0.070 0.122c-2.283 4.668-5.258 8.86-8.85 12.476-8.875 8.937-20.7 13.883-33.297 13.927s-24.457-4.821-33.395-13.699c-8.981-8.918-13.929-20.802-13.929-33.461 0-12.534 4.865-24.337 13.698-33.232 3.459-3.48 7.453-6.392 11.893-8.67 3.781-2.87 9.125-4.312 16.104-5.327l-32.776-32.552c-6.502-6.456-10.082-15.107-10.082-24.359 0-9.423 3.692-18.33 10.397-25.081l42.063-42.352 4.521-0.040c0.732-0.006 1.475-0.030 2.221-0.054 2.375-0.073 5.041-0.156 7.809 0.181 2.803 0.176 5.447 1.313 7.583 3.291 1.646 1.522 6.017 5.567 6.017 22.193 0 1.128-0.033 1.688-0.059 2.010-0.047 0.603-0.071 1.221-0.071 1.832 0 6.295 2.459 12.204 6.925 16.641 9.168 9.104 24.039 9.051 33.146-0.119 4.391-4.421 6.809-10.286 6.808-16.515-0.001-6.293-2.458-12.198-6.921-16.63-5.91-5.868-14.586-8.168-22.642-6-4.282 1.153-9.243 0.151-13.267-2.682-4.084-2.875-6.65-7.295-7.041-12.126-0.073-0.921-0.104-2.060-0.104-3.815 0-1.202 0.015-2.609 0.032-4.099 0.016-1.528 0.033-3.147 0.035-4.711l0.004-4.529 45.684-46c6.602-6.648 15.348-10.402 24.625-10.567 9.396-0.167 18.209 3.352 24.812 9.908l29.379 29.179c0.533-5.020 1.695-10.393 4.439-15.17l3.236-5.637 1.523 0.027c1.365-1.85 2.866-3.601 4.495-5.24 18.33-18.455 48.248-18.557 66.699-0.233zM262.998 31.605c-1.773 1.784-3.262 3.813-4.426 6.030l-2.823 5.374c-0.398 2.788-0.49 5.962-0.565 8.575-0.193 6.709-0.483 16.772-9.826 19.428-1.239 0.417-2.702 0.887-4.106 1.329l-6.34 1.998-46.1-45.785c-2.349-2.331-5.516-3.582-8.918-3.521-3.521 0.062-6.861 1.509-9.407 4.072l-39.331 39.604c-0.001 0.093-0.002 0.185-0.003 0.276 13.359-1.309 26.851 3.363 36.522 12.969 8.654 8.592 13.42 20.042 13.421 32.239 0.001 12.078-4.687 23.449-13.198 32.020-17.654 17.776-46.48 17.878-64.26 0.226-8.655-8.599-13.421-20.052-13.421-32.25 0-1.127 0.042-2.268 0.126-3.393 0.006-0.232 0.006-0.629 0-0.991l-32.6 32.825c-2.585 2.603-4.007 6.004-4.007 9.578 0 3.346 1.272 6.453 3.584 8.749l50.438 50.091-1.436 6.008c-1.451 6.074-5.441 10.322-10.947 11.656-1.857 0.453-4.116 0.689-8.278 1.102-3.616 0.359-11.614 1.152-14.979 2.194l-0.367 0.478-2.407 1.136c-2.711 1.279-5.112 2.961-7.138 5-4.711 4.743-7.307 11.040-7.307 17.728 0 6.753 2.64 13.093 7.431 17.851 4.77 4.738 11.097 7.333 17.816 7.31 6.721-0.023 13.029-2.663 17.766-7.431 2.029-2.043 3.695-4.46 4.955-7.187l1.256-2.718c0.332-1.094 0.654-2.617 0.877-4.734l0.018-0.16c0.052-0.428 0.088-0.857 0.113-1.287l0.010-0.145c0.136-1.831 0.189-3.69 0.242-5.488 0.195-6.713 0.488-16.781 9.834-19.437 1.421-0.477 3.143-1.025 4.727-1.52l6.324-1.973 45.555 45.239c2.348 2.333 5.514 3.584 8.915 3.523 3.521-0.062 6.862-1.51 9.409-4.072l31.504-31.724c-12.89 0.728-25.432-4.017-34.604-13.125-8.654-8.596-13.419-20.046-13.419-32.242 0-12.077 4.687-23.448 13.198-32.018 8.552-8.612 19.946-13.379 32.084-13.421 12.137-0.042 23.564 4.645 32.176 13.196 8.655 8.597 13.418 20.046 13.418 32.241 0 0.759-0.020 1.519-0.057 2.275l38.44-38.709c2.586-2.603 4.008-6.004 4.008-9.579 0-3.347-1.271-6.453-3.585-8.747l-50.711-50.365 2.035-6.403c1.688-5.309 5.534-9.053 10.551-10.272 1.863-0.454 4.117-0.69 8.271-1.103l2.031-0.201 1.402 0.222c7.992 1.27 16.148-1.379 21.814-7.082 4.711-4.744 7.307-11.042 7.307-17.729 0-6.754-2.641-13.095-7.432-17.854-9.842-9.776-25.803-9.72-35.58 0.124z" />
<glyph unicode="&#xe624;" d="M156 328h25v-327h-25v327zM161 257h276v-25h-276v25zM161 73h276v-25h-276v25zM440 275v0 0zM232 326c0-1.657-1.343-3-3-3h-121c-1.657 0-3 1.343-3 3v121c0 1.657 1.343 3 3 3h121c1.657 0 3-1.343 3-3v-121zM442 184c0-1.656-1.343-3-3-3h-121c-1.657 0-3 1.344-3 3v121c0 1.657 1.343 3 3 3h121c1.657 0 3-1.343 3-3v-121zM442 0c0-1.656-1.343-3-3-3h-121c-1.657 0-3 1.344-3 3v121c0 1.656 1.343 3 3 3h121c1.657 0 3-1.344 3-3v-121z" />
<glyph unicode="&#xe625;" d="M130 346c0-1.657-1.343-3-3-3h-82c-1.657 0-3 1.343-3 3v81c0 1.657 1.343 3 3 3h82c1.657 0 3-1.343 3-3v-81zM341 346c0-1.657-1.344-3-3-3h-164c-1.657 0-3 1.343-3 3v81c0 1.657 1.343 3 3 3h164c1.656 0 3-1.343 3-3v-81zM470 346c0-1.657-1.344-3-3-3h-82c-1.656 0-3 1.343-3 3v81c0 1.657 1.344 3 3 3h82c1.656 0 3-1.343 3-3v-81zM130 187c0-1.656-1.343-3-3-3h-82c-1.657 0-3 1.344-3 3v81c0 1.657 1.343 3 3 3h82c1.657 0 3-1.343 3-3v-81zM341 187c0-1.656-1.344-3-3-3h-164c-1.657 0-3 1.344-3 3v81c0 1.657 1.343 3 3 3h164c1.656 0 3-1.343 3-3v-81zM470 187c0-1.656-1.344-3-3-3h-82c-1.656 0-3 1.344-3 3v81c0 1.657 1.344 3 3 3h82c1.656 0 3-1.343 3-3v-81zM130 28c0-1.656-1.343-3-3-3h-82c-1.657 0-3 1.344-3 3v81c0 1.656 1.343 3 3 3h82c1.657 0 3-1.344 3-3v-81zM341 28c0-1.656-1.344-3-3-3h-164c-1.657 0-3 1.344-3 3v81c0 1.656 1.343 3 3 3h164c1.656 0 3-1.344 3-3v-81zM470 28c0-1.656-1.344-3-3-3h-82c-1.656 0-3 1.344-3 3v81c0 1.656 1.344 3 3 3h82c1.656 0 3-1.344 3-3v-81z" />
<glyph unicode="&#xe626;" d="M465 346c0-1.657-1.344-3-3-3h-412c-1.657 0-3 1.343-3 3v81c0 1.657 1.343 3 3 3h412c1.656 0 3-1.343 3-3v-81zM465 187c0-1.656-1.344-3-3-3h-412c-1.657 0-3 1.344-3 3v81c0 1.657 1.343 3 3 3h412c1.656 0 3-1.343 3-3v-81zM465 28c0-1.656-1.344-3-3-3h-412c-1.657 0-3 1.344-3 3v81c0 1.656 1.343 3 3 3h412c1.656 0 3-1.344 3-3v-81z" />
<glyph unicode="&#xe627;" d="M157 325.779c0-1.535-1.244-2.779-2.779-2.779h-107.442c-1.535 0-2.779 1.244-2.779 2.779v107.442c0 1.535 1.244 2.779 2.779 2.779h107.442c1.535 0 2.779-1.244 2.779-2.779v-107.442zM467 325.779c0-1.535-1.244-2.779-2.779-2.779h-107.442c-1.535 0-2.779 1.244-2.779 2.779v107.442c0 1.535 1.244 2.779 2.779 2.779h107.441c1.535 0 2.779-1.244 2.779-2.779v-107.442zM312 325.779c0-1.535-1.244-2.779-2.779-2.779h-107.442c-1.535 0-2.779 1.244-2.779 2.779v107.442c0 1.535 1.244 2.779 2.779 2.779h107.441c1.535 0 2.779-1.244 2.779-2.779v-107.442zM157 15.779c0-1.535-1.244-2.779-2.779-2.779h-107.442c-1.535 0-2.779 1.244-2.779 2.779v107.442c0 1.535 1.244 2.779 2.779 2.779h107.442c1.535 0 2.779-1.244 2.779-2.779v-107.442zM467 15.779c0-1.535-1.244-2.779-2.779-2.779h-107.442c-1.535 0-2.779 1.244-2.779 2.779v107.442c0 1.535 1.244 2.779 2.779 2.779h107.441c1.535 0 2.779-1.244 2.779-2.779v-107.442zM312 15.779c0-1.535-1.244-2.779-2.779-2.779h-107.442c-1.535 0-2.779 1.244-2.779 2.779v107.442c0 1.535 1.244 2.779 2.779 2.779h107.441c1.535 0 2.779-1.244 2.779-2.779v-107.442zM157 170.779c0-1.535-1.244-2.779-2.779-2.779h-107.442c-1.535 0-2.779 1.244-2.779 2.779v107.442c0 1.535 1.244 2.779 2.779 2.779h107.442c1.535 0 2.779-1.244 2.779-2.779v-107.442zM467 170.779c0-1.535-1.244-2.779-2.779-2.779h-107.442c-1.535 0-2.779 1.244-2.779 2.779v107.442c0 1.535 1.244 2.779 2.779 2.779h107.441c1.535 0 2.779-1.244 2.779-2.779v-107.442zM312 170.779c0-1.535-1.244-2.779-2.779-2.779h-107.442c-1.535 0-2.779 1.244-2.779 2.779v107.442c0 1.535 1.244 2.779 2.779 2.779h107.441c1.535 0 2.779-1.244 2.779-2.779v-107.442z" />
<glyph unicode="&#xf000;" d="M0 480l512-512h-512z" />
</font>
</defs>
</svg>
