<?xml version="1.0" encoding="utf-8"?>
<!-- Generator: Adobe Illustrator 16.0.0, SVG Export Plug-In . SVG Version: 6.00 Build 0)  -->
<!DOCTYPE svg PUBLIC "-//W3C//DTD SVG 1.1//EN" "http://www.w3.org/Graphics/SVG/1.1/DTD/svg11.dtd">
<svg version="1.1" id="Layer_1" xmlns="http://www.w3.org/2000/svg" xmlns:xlink="http://www.w3.org/1999/xlink" x="0px" y="0px"
	 width="128.994px" height="493.581px" viewBox="0 0 128.994 493.581" enable-background="new 0 0 128.994 493.581"
	 xml:space="preserve">
<polygon fill-rule="evenodd" clip-rule="evenodd" fill="#EFF4F4" stroke="#4C4D57" stroke-width="3" stroke-linecap="round" stroke-linejoin="round" points="
	1248.592,314.836 1248.592,367.336 1254.533,370.277 1323.892,370.277 1323.892,324.305 1317.656,324.305 1317.656,363.904 
	1317.656,314.836 "/>
<rect x="1504.656" y="241.57" fill-rule="evenodd" clip-rule="evenodd" fill="#EFF4F4" stroke="#4C4D57" stroke-width="3" stroke-linecap="round" stroke-linejoin="round" width="69.018" height="48.632"/>
<rect x="1498.373" y="232.101" fill-rule="evenodd" clip-rule="evenodd" fill="#EFF4F4" stroke="#4C4D57" stroke-width="3" stroke-linecap="round" stroke-linejoin="round" width="69.018" height="52.5"/>
<rect x="1506.707" y="240.14" fill-rule="evenodd" clip-rule="evenodd" fill="#EFF4F4" stroke="#4C4D57" stroke-width="2" stroke-linecap="round" stroke-linejoin="round" width="52.575" height="8.041"/>
<rect x="1537.098" y="254.735" fill-rule="evenodd" clip-rule="evenodd" fill="#EFF4F4" stroke="#4C4D57" stroke-width="2" stroke-linecap="round" stroke-linejoin="round" width="22.185" height="4.623"/>
<rect x="1537.098" y="263.574" fill-rule="evenodd" clip-rule="evenodd" fill="#EFF4F4" stroke="#4C4D57" stroke-width="2" stroke-linecap="round" stroke-linejoin="round" width="22.185" height="4.623"/>
<rect x="1537.098" y="272.414" fill-rule="evenodd" clip-rule="evenodd" fill="#EFF4F4" stroke="#4C4D57" stroke-width="2" stroke-linecap="round" stroke-linejoin="round" width="22.185" height="4.623"/>
<rect x="1506.707" y="254.735" fill-rule="evenodd" clip-rule="evenodd" fill="#4C4D57" stroke="#4C4D57" stroke-width="2" stroke-linecap="round" stroke-linejoin="round" width="24.818" height="22.302"/>
<rect x="1257.041" y="322.875" fill-rule="evenodd" clip-rule="evenodd" fill="#EFF4F4" stroke="#4C4D57" stroke-width="2" stroke-linecap="round" stroke-linejoin="round" width="52.574" height="8.041"/>
<rect x="1287.431" y="337.47" fill-rule="evenodd" clip-rule="evenodd" fill="#EFF4F4" stroke="#4C4D57" stroke-width="2" stroke-linecap="round" stroke-linejoin="round" width="22.185" height="4.623"/>
<rect x="1287.431" y="346.309" fill-rule="evenodd" clip-rule="evenodd" fill="#EFF4F4" stroke="#4C4D57" stroke-width="2" stroke-linecap="round" stroke-linejoin="round" width="22.185" height="4.623"/>
<rect x="1287.431" y="355.148" fill-rule="evenodd" clip-rule="evenodd" fill="#EFF4F4" stroke="#4C4D57" stroke-width="2" stroke-linecap="round" stroke-linejoin="round" width="22.185" height="4.623"/>
<rect x="1257.041" y="337.47" fill-rule="evenodd" clip-rule="evenodd" fill="#4C4D57" stroke="#4C4D57" stroke-width="2" stroke-linecap="round" stroke-linejoin="round" width="24.817" height="22.302"/>
<g>
	<polygon fill-rule="evenodd" clip-rule="evenodd" fill="#EFF4F4" points="1116.466,170.83 1116.466,199.791 1119.743,201.414 
		1158.004,201.414 1158.004,176.054 1154.564,176.054 1154.564,197.898 1154.564,170.83 	"/>
	<path fill="#4C4D57" d="M1158.004,202.241h-38.261c-0.127,0-0.253-0.029-0.366-0.086l-3.279-1.623
		c-0.281-0.14-0.459-0.427-0.459-0.742V170.83c0-0.457,0.37-0.828,0.827-0.828h38.099c0.457,0,0.828,0.371,0.828,0.828v4.396h2.611
		c0.457,0,0.828,0.37,0.828,0.828v25.36C1158.832,201.871,1158.461,202.241,1158.004,202.241L1158.004,202.241z M1119.938,200.586
		h37.239v-23.706h-1.784v21.018c0,0.457-0.371,0.828-0.828,0.828s-0.827-0.371-0.827-0.828v-26.241h-36.444v27.62L1119.938,200.586
		L1119.938,200.586z"/>
</g>
<g>
	<rect x="1121.127" y="175.265" fill-rule="evenodd" clip-rule="evenodd" fill="#EFF4F4" width="29.002" height="4.436"/>
	<path fill="#4C4D57" d="M1150.129,180.252h-29.002c-0.305,0-0.552-0.247-0.552-0.552v-4.436c0-0.305,0.247-0.552,0.552-0.552
		h29.002c0.305,0,0.552,0.247,0.552,0.552v4.436C1150.681,180.005,1150.434,180.252,1150.129,180.252L1150.129,180.252z
		 M1121.679,179.149h27.899v-3.333h-27.899V179.149L1121.679,179.149z"/>
</g>
<g>
	<rect x="1137.891" y="183.316" fill-rule="evenodd" clip-rule="evenodd" fill="#EFF4F4" width="12.238" height="2.55"/>
	<path fill="#4C4D57" d="M1150.129,186.417h-12.238c-0.305,0-0.551-0.247-0.551-0.551v-2.55c0-0.305,0.246-0.552,0.551-0.552h12.238
		c0.305,0,0.552,0.247,0.552,0.552v2.55C1150.681,186.171,1150.434,186.417,1150.129,186.417L1150.129,186.417z M1138.442,185.314
		h11.136v-1.447h-11.136V185.314L1138.442,185.314z"/>
</g>
<g>
	<rect x="1137.891" y="188.192" fill-rule="evenodd" clip-rule="evenodd" fill="#EFF4F4" width="12.238" height="2.55"/>
	<path fill="#4C4D57" d="M1150.129,191.294h-12.238c-0.305,0-0.551-0.247-0.551-0.552v-2.55c0-0.305,0.246-0.551,0.551-0.551h12.238
		c0.305,0,0.552,0.247,0.552,0.551v2.55C1150.681,191.047,1150.434,191.294,1150.129,191.294L1150.129,191.294z M1138.442,190.191
		h11.136v-1.447h-11.136V190.191L1138.442,190.191z"/>
</g>
<g>
	<rect x="1137.891" y="193.068" fill-rule="evenodd" clip-rule="evenodd" fill="#EFF4F4" width="12.238" height="2.55"/>
	<path fill="#4C4D57" d="M1150.129,196.17h-12.238c-0.305,0-0.551-0.248-0.551-0.552v-2.55c0-0.305,0.246-0.552,0.551-0.552h12.238
		c0.305,0,0.552,0.247,0.552,0.552v2.55C1150.681,195.923,1150.434,196.17,1150.129,196.17L1150.129,196.17z M1138.442,195.067
		h11.136v-1.447h-11.136V195.067L1138.442,195.067z"/>
</g>
<g>
	<rect x="1121.127" y="183.316" fill-rule="evenodd" clip-rule="evenodd" fill="#4C4D57" width="13.689" height="12.303"/>
	<path fill="#4C4D57" d="M1134.816,196.17h-13.689c-0.305,0-0.552-0.248-0.552-0.552v-12.303c0-0.305,0.247-0.552,0.552-0.552
		h13.689c0.306,0,0.553,0.247,0.553,0.552v12.303C1135.369,195.923,1135.122,196.17,1134.816,196.17L1134.816,196.17z
		 M1121.679,195.067h12.587v-11.199h-12.587V195.067L1121.679,195.067z"/>
</g>
<polygon fill-rule="evenodd" clip-rule="evenodd" fill="#EFF4F4" stroke="#4C4D57" stroke-width="3" stroke-linecap="round" stroke-linejoin="round" points="
	1354.625,314.836 1354.625,367.336 1360.567,370.277 1426.233,370.277 1429.926,365.752 1429.926,324.305 1423.69,324.305 
	1423.69,363.904 1423.69,314.836 "/>
<rect x="1363.075" y="322.875" fill-rule="evenodd" clip-rule="evenodd" fill="#EFF4F4" stroke="#4C4D57" stroke-width="2" stroke-linecap="round" stroke-linejoin="round" width="52.575" height="8.041"/>
<rect x="1393.465" y="337.47" fill-rule="evenodd" clip-rule="evenodd" fill="#EFF4F4" stroke="#4C4D57" stroke-width="2" stroke-linecap="round" stroke-linejoin="round" width="22.186" height="4.623"/>
<rect x="1393.465" y="346.309" fill-rule="evenodd" clip-rule="evenodd" fill="#EFF4F4" stroke="#4C4D57" stroke-width="2" stroke-linecap="round" stroke-linejoin="round" width="22.186" height="4.623"/>
<rect x="1393.465" y="355.148" fill-rule="evenodd" clip-rule="evenodd" fill="#EFF4F4" stroke="#4C4D57" stroke-width="2" stroke-linecap="round" stroke-linejoin="round" width="22.186" height="4.623"/>
<rect x="1363.075" y="337.47" fill-rule="evenodd" clip-rule="evenodd" fill="#4C4D57" stroke="#4C4D57" stroke-width="2" stroke-linecap="round" stroke-linejoin="round" width="24.817" height="22.302"/>
<polygon fill-rule="evenodd" clip-rule="evenodd" fill="#EFF4F4" stroke="#4C4D57" stroke-width="3" stroke-linecap="round" stroke-linejoin="round" points="
	1354.625,383.835 1354.625,431.335 1360.567,437.351 1423.58,437.351 1429.926,429.751 1429.926,393.305 1423.69,393.305 
	1423.69,427.905 1423.69,383.835 "/>
<rect x="1363.075" y="391.875" fill-rule="evenodd" clip-rule="evenodd" fill="#EFF4F4" stroke="#4C4D57" stroke-width="2" stroke-linecap="round" stroke-linejoin="round" width="52.575" height="8.041"/>
<rect x="1393.465" y="406.47" fill-rule="evenodd" clip-rule="evenodd" fill="#EFF4F4" stroke="#4C4D57" stroke-width="2" stroke-linecap="round" stroke-linejoin="round" width="22.186" height="4.623"/>
<rect x="1393.465" y="415.31" fill-rule="evenodd" clip-rule="evenodd" fill="#EFF4F4" stroke="#4C4D57" stroke-width="2" stroke-linecap="round" stroke-linejoin="round" width="22.186" height="4.623"/>
<rect x="1393.465" y="424.148" fill-rule="evenodd" clip-rule="evenodd" fill="#EFF4F4" stroke="#4C4D57" stroke-width="2" stroke-linecap="round" stroke-linejoin="round" width="22.186" height="4.623"/>
<rect x="1363.075" y="406.47" fill-rule="evenodd" clip-rule="evenodd" fill="#4C4D57" stroke="#4C4D57" stroke-width="2" stroke-linecap="round" stroke-linejoin="round" width="24.817" height="22.302"/>
<g>
	<g>
		<g>
			<path fill-rule="evenodd" clip-rule="evenodd" fill="#FDE4DF" d="M63.918,25.224l-13.673,2.12l-1.891,13.444l22.697,22.698
				l15.563-15.564L63.918,25.224z M61.427,37.972c-0.985,0.985-2.582,0.985-3.566,0c-0.985-0.985-0.985-2.582,0-3.566
				c0.985-0.985,2.582-0.985,3.566,0S62.412,36.987,61.427,37.972z"/>
		</g>
		<g>
			<path fill="none" stroke="#4C4D57" stroke-width="2" stroke-linecap="round" stroke-linejoin="round" d="M63.918,25.224
				l-13.673,2.12l-1.891,13.444l22.697,22.698l15.563-15.564L63.918,25.224z M61.427,37.972c-0.985,0.985-2.582,0.985-3.566,0
				c-0.985-0.985-0.985-2.582,0-3.566c0.985-0.985,2.582-0.985,3.566,0S62.412,36.987,61.427,37.972z"/>
		</g>
	</g>
	<g>
		<ellipse fill-rule="evenodd" clip-rule="evenodd" fill="#FFFFFF" cx="59.644" cy="28.716" rx="5.738" ry="5.115"/>
		<g>
			<g>
				<path fill-rule="evenodd" clip-rule="evenodd" fill="#FDE4DF" d="M63.918,17.751l-13.673,2.12l-1.891,13.444l22.697,22.698
					l15.563-15.564L63.918,17.751z M61.427,30.5c-0.985,0.985-2.582,0.985-3.566,0c-0.985-0.985-0.985-2.582,0-3.566
					c0.985-0.985,2.582-0.985,3.566,0S62.412,29.515,61.427,30.5z"/>
			</g>
			<g>
				<path fill="none" stroke="#4C4D57" stroke-width="2" stroke-linecap="round" stroke-linejoin="round" d="M63.918,17.751
					l-13.673,2.12l-1.891,13.444l22.697,22.698l15.563-15.564L63.918,17.751z M61.427,30.5c-0.985,0.985-2.582,0.985-3.566,0
					c-0.985-0.985-0.985-2.582,0-3.566c0.985-0.985,2.582-0.985,3.566,0S62.412,29.515,61.427,30.5z"/>
			</g>
		</g>
	</g>
</g>
<g>
	<polygon fill="#FFFFFF" points="56.692,194.19 67.766,180.973 75.497,175.626 81.793,166.911 78.848,147.895 82.321,141.371 
		77.27,145.884 68.012,145.065 62.783,141.45 66.093,148.113 63.095,157.583 60.854,156.756 51.969,180.331 53.555,187.621 
		55.303,185.608 	"/>
	<g>
		<polygon fill="#E5DB1F" points="71.995,152.183 79.938,147.212 82.45,140.148 76.631,143.958 67.21,144.993 61.454,140.794 
			64.843,148.062 		"/>
		<g>
			<path fill="#393B40" d="M81.07,141.022c0-0.573,0.463-1.032,1.03-1.032c0.569,0,1.03,0.459,1.03,1.032
				c0,0.565-0.461,1.028-1.03,1.028C81.533,142.05,81.07,141.587,81.07,141.022z"/>
		</g>
		<g>
			<path fill="#393B40" d="M61.336,141.022c0-0.573,0.461-1.032,1.029-1.032c0.57,0,1.031,0.459,1.031,1.032
				c0,0.565-0.461,1.028-1.031,1.028C61.797,142.05,61.336,141.587,61.336,141.022z"/>
		</g>
		<g>
			<path fill="#393B40" d="M75.778,156.138c0-0.569,0.459-1.032,1.028-1.032c0.569,0,1.029,0.463,1.029,1.032
				c0,0.565-0.459,1.028-1.029,1.028C76.237,157.166,75.778,156.704,75.778,156.138z"/>
		</g>
		<g>
			<circle fill="#393B40" cx="78.865" cy="147.761" r="1.03"/>
		</g>
		<g>
			<circle fill="#393B40" cx="65.872" cy="147.651" r="1.029"/>
		</g>
		<g>
			<circle fill="#393B40" cx="59.603" cy="180.62" r="1.029"/>
		</g>
		<g>
			<circle fill="#393B40" cx="56.471" cy="193.838" r="1.029"/>
		</g>
		<g>
			<circle fill="#393B40" cx="53.334" cy="186.969" r="1.031"/>
		</g>
		<g>
			<circle fill="#393B40" cx="82.192" cy="166.752" r="1.03"/>
		</g>
		<g>
			<circle fill="#393B40" cx="75.497" cy="175.626" r="1.029"/>
		</g>
		<g>
			<path fill="#393B40" d="M73.826,163.784c0-0.573,0.461-1.032,1.03-1.032c0.568,0,1.03,0.459,1.03,1.032
				c0,0.565-0.462,1.028-1.03,1.028C74.287,164.812,73.826,164.349,73.826,163.784z"/>
		</g>
		<g>
			<path fill="#393B40" d="M59.602,156.406c0-0.569,0.462-1.032,1.03-1.032c0.568,0,1.031,0.462,1.031,1.032
				c0,0.566-0.462,1.028-1.031,1.028C60.064,157.435,59.602,156.972,59.602,156.406z"/>
		</g>
		<g>
			<circle fill="#393B40" cx="63.48" cy="157.927" r="1.03"/>
		</g>
		<g>
			<path fill="#393B40" d="M71.652,152.864l-6.076-5.113l-1.458-2.7l-2.05-3.496l0.493-0.456l5.229,3.616l9.017,0.126l5.076-4.088
				l0.53,0.411l-3.145,6.827l-3.178,2.128L71.652,152.864L71.652,152.864z M66.119,147.309l5.595,4.709l4.003-2.478l3.006-2.011
				l2.45-5.32l-4.125,3.324l-9.479-0.129l-4.117-2.849l1.266,2.157L66.119,147.309L66.119,147.309z"/>
		</g>
		<g>
			<polygon fill="#393B40" points="67.721,181.334 58.57,181.334 74.296,163.887 62.73,158.11 65.513,147.441 66.178,147.616 
				63.538,157.742 75.414,163.676 60.118,180.646 67.51,180.646 75.262,175.372 81.829,167.248 80.958,161.594 78.931,147.7 
				79.612,147.6 81.64,161.49 82.555,167.441 75.732,175.882 67.721,181.334 			"/>
		</g>
		<g>
			<path fill="#393B40" d="M53.294,187.7l-1.546-7.72l8.693-24.061l14.973,7.765L53.294,187.7L53.294,187.7z M52.461,180.035
				l1.244,6.203l20.591-22.357l-13.473-6.989L52.461,180.035L52.461,180.035z"/>
		</g>
		<g>
			<polygon fill="#393B40" points="64.754,153.075 64.088,152.907 64.091,152.891 64.759,153.059 64.754,153.075 			"/>
		</g>
		<g>
			<path fill="#393B40" d="M56.386,194.885l-1.894-9.504l4.707-5.11l9.128,0.404L56.386,194.885L56.386,194.885z M55.236,185.591
				l1.545,7.752l10.12-12.041l-7.411-0.33L55.236,185.591L55.236,185.591z"/>
		</g>
		<g>
			<polygon fill="#393B40" points="56.807,193.625 56.135,193.47 59.009,180.914 59.68,181.066 56.807,193.625 			"/>
		</g>
		<g>
			<polygon fill="#393B40" points="67.933,181.124 67.298,180.856 74.537,163.647 75.173,163.916 67.933,181.124 			"/>
		</g>
		<g>
			<polygon fill="#393B40" points="75.153,175.643 74.512,162.9 75.199,162.865 75.841,175.61 75.153,175.643 			"/>
		</g>
		<g>
			<polygon fill="#393B40" points="76.593,156.671 65.196,147.59 65.627,147.053 77.021,156.134 76.593,156.671 			"/>
		</g>
		<g>
			<polygon fill="#393B40" points="72.33,152.603 71.952,152.027 79.083,147.363 79.458,147.939 72.33,152.603 			"/>
		</g>
		<g>
			<polygon fill="#393B40" points="59.689,181.008 59.001,180.969 60.288,156.387 60.975,156.422 59.689,181.008 			"/>
		</g>
		<g>
			<polygon fill="#393B40" points="63.173,158.269 63.095,157.583 76.768,156.06 76.845,156.745 63.173,158.269 			"/>
		</g>
		<g>
			<polygon fill="#393B40" points="75.188,163.871 74.523,163.69 78.939,147.561 79.604,147.742 75.188,163.871 			"/>
		</g>
		<g>
			<polygon fill="#393B40" points="81.793,166.911 76.5,156.562 77.113,156.248 82.406,166.596 81.793,166.911 			"/>
		</g>
	</g>
</g>
<g>
	
		<polygon fill-rule="evenodd" clip-rule="evenodd" fill="#EFF4F4" stroke="#4C4D57" stroke-width="2" stroke-linecap="round" stroke-linejoin="round" points="
		-109.639,273.347 -109.639,312.947 -106.303,315.166 -51.392,315.166 -51.392,280.49 -57.545,280.49 -57.545,307.457 
		-57.545,273.347 	"/>
	
		<rect x="-103.266" y="279.411" fill-rule="evenodd" clip-rule="evenodd" fill="#EFF4F4" stroke="#4C4D57" stroke-width="2" stroke-linecap="round" stroke-linejoin="round" width="39.656" height="6.065"/>
	
		<rect x="-80.343" y="290.42" fill-rule="evenodd" clip-rule="evenodd" fill="#EFF4F4" stroke="#4C4D57" stroke-width="2" stroke-linecap="round" stroke-linejoin="round" width="16.734" height="3.486"/>
	
		<rect x="-80.343" y="297.087" fill-rule="evenodd" clip-rule="evenodd" fill="#EFF4F4" stroke="#4C4D57" stroke-width="2" stroke-linecap="round" stroke-linejoin="round" width="16.734" height="3.487"/>
	
		<rect x="-80.343" y="303.754" fill-rule="evenodd" clip-rule="evenodd" fill="#EFF4F4" stroke="#4C4D57" stroke-width="2" stroke-linejoin="round" width="16.734" height="3.487"/>
	
		<rect x="-103.266" y="290.42" fill-rule="evenodd" clip-rule="evenodd" fill="#4C4D57" stroke="#4C4D57" stroke-width="2" stroke-linecap="round" stroke-linejoin="round" width="18.719" height="16.821"/>
</g>
<rect x="38.392" y="275.919" fill-rule="evenodd" clip-rule="evenodd" fill="#EFF4F4" stroke="#4C4D57" stroke-width="2" stroke-linecap="round" stroke-linejoin="round" width="52.248" height="35.05"/>
<rect x="55.535" y="310.97" fill-rule="evenodd" clip-rule="evenodd" fill="#EFF4F4" stroke="#4C4D57" stroke-width="2" stroke-linecap="round" stroke-linejoin="round" width="17.962" height="7.7"/>
<rect x="46.998" y="317.699" fill-rule="evenodd" clip-rule="evenodd" fill="#EFF4F4" stroke="#4C4D57" stroke-width="2" stroke-linecap="round" stroke-linejoin="round" width="35.037" height="2.981"/>
<rect x="38.392" y="306.618" fill-rule="evenodd" clip-rule="evenodd" fill="#4C4D57" width="52.248" height="4.352"/>
<rect x="73.112" y="279.773" fill-rule="evenodd" clip-rule="evenodd" fill="#80C896" stroke="#EFF4F4" stroke-width="2" stroke-linecap="round" stroke-linejoin="round" width="14.946" height="24.294"/>
<g>
	
		<rect x="42.679" y="281.22" fill-rule="evenodd" clip-rule="evenodd" fill="#EFF4F4" stroke="#4C4D57" stroke-linecap="round" stroke-linejoin="round" width="28.035" height="21.401"/>
	
		<rect x="45.477" y="283.555" fill-rule="evenodd" clip-rule="evenodd" fill="#4C4D57" stroke="#EFF4F4" stroke-linecap="round" stroke-linejoin="round" width="22.406" height="4.101"/>
	
		<rect x="45.478" y="289.253" fill-rule="evenodd" clip-rule="evenodd" fill="#4C4D57" stroke="#EFF4F4" stroke-linecap="round" stroke-linejoin="round" width="9.658" height="2.176"/>
	
		<rect x="45.478" y="292.168" fill-rule="evenodd" clip-rule="evenodd" fill="#4C4D57" stroke="#EFF4F4" stroke-linecap="round" stroke-linejoin="round" width="9.658" height="2.176"/>
	
		<rect x="45.478" y="295.083" fill-rule="evenodd" clip-rule="evenodd" fill="#4C4D57" stroke="#EFF4F4" stroke-linecap="round" stroke-linejoin="round" width="9.658" height="2.176"/>
	
		<rect x="45.478" y="297.999" fill-rule="evenodd" clip-rule="evenodd" fill="#4C4D57" stroke="#EFF4F4" stroke-linecap="round" stroke-linejoin="round" width="9.658" height="2.176"/>
	
		<rect x="58.225" y="295.083" fill-rule="evenodd" clip-rule="evenodd" fill="#4C4D57" stroke="#EFF4F4" stroke-linecap="round" stroke-linejoin="round" width="9.658" height="2.176"/>
	
		<rect x="58.225" y="297.999" fill-rule="evenodd" clip-rule="evenodd" fill="#4C4D57" stroke="#EFF4F4" stroke-linecap="round" stroke-linejoin="round" width="9.658" height="2.176"/>
	
		<rect x="58.133" y="289.154" fill-rule="evenodd" clip-rule="evenodd" fill="#80C896" stroke="#EFF4F4" stroke-linecap="round" stroke-linejoin="round" width="9.75" height="5.532"/>
</g>
<polygon fill-rule="evenodd" clip-rule="evenodd" fill="#4C4D57" points="55.535,315.439 73.497,313.354 73.497,310.97 
	55.535,310.97 "/>
<polygon fill-rule="evenodd" clip-rule="evenodd" fill="#EFF4F4" stroke="#4C4D57" stroke-linecap="round" stroke-linejoin="round" points="
	85.093,292.168 76.424,292.168 77.424,290.342 84.093,290.342 "/>
<rect x="76.424" y="292.168" fill-rule="evenodd" clip-rule="evenodd" fill="#EFF4F4" stroke="#4C4D57" stroke-linecap="round" stroke-linejoin="round" width="8.668" height="5.307"/>
<path fill-rule="evenodd" clip-rule="evenodd" fill="none" stroke="#4C4D57" stroke-width="1.2" stroke-linecap="square" stroke-linejoin="round" d="
	M78.614,290.604v-2.285c0-1.276,0.96-2.31,2.145-2.31s2.145,1.034,2.145,2.31v2.285"/>
<ellipse fill-rule="evenodd" clip-rule="evenodd" fill="#4C4D57" cx="78.578" cy="291.227" rx="0.781" ry="0.32"/>
<ellipse fill-rule="evenodd" clip-rule="evenodd" fill="#4C4D57" cx="82.903" cy="291.227" rx="0.781" ry="0.32"/>
<line fill="#EFF4F4" stroke="#4C4D57" stroke-linecap="round" stroke-linejoin="round" x1="76.61" y1="295.922" x2="84.835" y2="295.922"/>
</svg>
